<svg width="40" height="40" viewBox="0 0 40 40" fill="none" xmlns="http://www.w3.org/2000/svg">
<path d="M20 9.99967V36.6663M20 9.99967H14.1071C13.2389 9.99967 12.4062 9.64849 11.7922 9.02336C11.1783 8.39824 10.8333 7.5504 10.8333 6.66634C10.8333 5.78229 11.1783 4.93444 11.7922 4.30932C12.4062 3.6842 13.2389 3.33301 14.1071 3.33301C18.6905 3.33301 20 9.99967 20 9.99967ZM20 9.99967H25.8929C26.7611 9.99967 27.5938 9.64849 28.2078 9.02336C28.8217 8.39824 29.1667 7.5504 29.1667 6.66634C29.1667 5.78229 28.8217 4.93444 28.2078 4.30932C27.5938 3.6842 26.7611 3.33301 25.8929 3.33301C21.3095 3.33301 20 9.99967 20 9.99967ZM33.3333 18.333V31.333C33.3333 33.1998 33.3333 34.1333 32.97 34.8463C32.6504 35.4735 32.1405 35.9835 31.5133 36.303C30.8003 36.6663 29.8668 36.6663 28 36.6663L12 36.6663C10.1332 36.6663 9.19974 36.6663 8.4867 36.303C7.85949 35.9834 7.34956 35.4735 7.02998 34.8463C6.66667 34.1333 6.66667 33.1998 6.66667 31.333V18.333M3.33333 12.6663L3.33333 15.6663C3.33333 16.5998 3.33333 17.0665 3.51499 17.423C3.67478 17.7366 3.92975 17.9916 4.24335 18.1513C4.59987 18.333 5.06658 18.333 6 18.333L34 18.333C34.9334 18.333 35.4001 18.333 35.7567 18.1514C36.0703 17.9916 36.3252 17.7366 36.485 17.423C36.6667 17.0665 36.6667 16.5998 36.6667 15.6663V12.6663C36.6667 11.7329 36.6667 11.2662 36.485 10.9097C36.3252 10.5961 36.0703 10.3411 35.7567 10.1813C35.4001 9.99968 34.9334 9.99968 34 9.99968L6 9.99967C5.06658 9.99967 4.59987 9.99967 4.24335 10.1813C3.92975 10.3411 3.67478 10.5961 3.51499 10.9097C3.33333 11.2662 3.33333 11.7329 3.33333 12.6663Z" stroke="#43A548" stroke-width="3" stroke-linecap="round" stroke-linejoin="round"/>
</svg>
