<svg width="120" height="56" viewBox="0 0 120 56" fill="none" xmlns="http://www.w3.org/2000/svg">
<g clip-path="url(#clip0_110_7313)">
<path d="M17.6315 12.2593C17.3568 12.4341 17.3069 13.4078 17.3318 16.9781C17.3568 20.049 17.3069 21.522 17.1071 21.6469C16.9572 21.7467 16.183 21.547 15.4088 21.2224C14.26 20.748 13.5358 20.6482 11.6128 20.6482C8.09145 20.6731 6.11851 21.4721 3.721 23.8689C2.34743 25.2421 1.77303 26.1659 0.873968 28.3879C-0.000121772 30.5351 0.374488 34.5547 1.69811 37.2262C2.52225 38.899 4.71996 40.9712 6.74286 41.9948C8.46606 42.8437 8.54098 42.8687 11.6128 42.8687C14.9093 42.8687 15.259 42.7688 17.9811 41.121C18.7553 40.6716 18.7553 40.6716 19.4796 41.3457C20.6783 42.4442 22.2018 43.0185 23.6752 42.9436L24.9739 42.8687V37.9003L23.9749 37.4009L22.9759 36.8766L22.901 24.7927C22.876 16.3788 22.7512 12.6089 22.5764 12.3592C22.2517 11.9847 18.2059 11.8848 17.6315 12.2593ZM12.9614 26.3656C16.4577 27.4142 18.2309 31.1842 16.6575 34.2052C14.8095 37.7505 10.6138 38.5744 7.89166 35.9529C6.14348 34.305 5.56908 32.5324 6.11851 30.5101C6.74286 28.1632 9.01549 26.2657 11.5129 26.041C11.6627 26.0161 12.3121 26.1659 12.9614 26.3656ZM53.3443 12.3842C53.1445 12.6089 53.0946 16.8532 53.1195 27.7887L53.1945 42.8687H58.5889V27.6639C58.5889 15.48 58.5139 12.4091 58.2642 12.2593C57.6898 11.8848 53.669 11.9847 53.3443 12.3842ZM63.5836 12.3842C63.3839 12.6089 63.3339 16.8532 63.3589 27.7887L63.4338 42.8687H68.9281L69.003 27.7637C69.0529 13.7823 69.028 12.6338 68.6284 12.3342C68.029 11.9098 63.9583 11.9347 63.5836 12.3842ZM89.7814 20.1488C89.6065 20.3735 89.5316 20.8229 89.6065 21.2724C89.9062 22.7204 89.2569 23.2198 88.3828 22.2461C85.8604 19.4747 79.6169 20.2737 76.0207 23.819C74.3724 25.4418 73.4484 27.2394 72.8989 29.861C72.5493 31.5587 72.5493 31.9582 72.8989 33.7807C73.5982 37.5258 75.8708 40.4719 79.2923 42.0947C80.8157 42.8187 81.0904 42.8687 83.9125 42.8687C86.7845 42.8687 86.9843 42.8437 88.5327 42.0697C89.4317 41.6203 90.3308 41.121 90.5805 40.9462C90.9052 40.6966 91.13 40.7715 91.8542 41.4206C93.028 42.4442 94.6763 43.0434 96.0498 42.9436L97.1487 42.8687L97.2236 40.347L97.2985 37.8004L96.3245 37.4259C95.6253 37.1513 95.3006 36.8267 95.1757 36.3523C95.0758 35.9778 95.0259 32.2078 95.0509 27.9385C95.0758 21.5969 95.0259 20.1738 94.7512 19.999C94.5514 19.8742 93.4276 19.7743 92.2538 19.7743C90.6305 19.7743 90.0061 19.8742 89.7814 20.1488ZM86.1851 26.6902C88.1331 27.589 89.5316 29.7361 89.5316 31.8333C89.5316 33.4811 89.0321 34.5797 87.6586 35.878C85.5358 37.9502 82.5639 38.0251 80.2912 36.0527C78.8927 34.8793 78.2933 33.606 78.2933 31.8833C78.2933 29.9359 79.0675 28.5127 80.8157 27.1895C82.3391 26.041 84.362 25.8413 86.1851 26.6902ZM101.519 20.2737C101.344 20.5982 101.294 24.4681 101.319 31.8084L101.394 42.8687H106.639L106.764 36.627C106.914 29.5863 106.914 29.5613 108.837 27.7138C110.135 26.4655 111.609 25.9412 113.157 26.1908C113.781 26.2907 114.031 26.1908 114.481 25.6416C114.755 25.267 115.005 24.7927 115.005 24.6179C115.005 24.4182 115.105 24.0686 115.255 23.819C115.38 23.5943 115.679 22.9701 115.904 22.4458C116.304 21.547 116.304 21.4971 115.854 21.1475C115.23 20.6981 112.633 20.4235 110.984 20.6482C109.81 20.8229 109.536 20.9727 108.387 22.1712C107.688 22.9202 107.038 23.4445 106.938 23.3446C106.839 23.2697 106.764 22.5457 106.764 21.7717C106.764 20.9977 106.639 20.2487 106.464 20.0739C106.264 19.8742 105.34 19.7743 103.967 19.7743C102.069 19.7743 101.744 19.8243 101.519 20.2737ZM35.3381 20.8978C33.1653 21.522 31.8167 22.296 30.3433 23.769C28.6201 25.5167 27.721 27.1645 27.1966 29.6113C26.8219 31.309 26.797 31.8084 27.0717 33.4811C27.7959 37.9003 30.568 41.1959 34.6638 42.5191C35.9125 42.9436 36.7116 43.0185 38.7096 42.9436C40.9073 42.8437 41.4067 42.7438 42.9551 42.0198C47.4505 39.8727 49.8979 35.1789 49.1487 30.0357C48.5243 25.8413 45.977 22.8453 41.4817 21.0476C40.2579 20.5483 36.8865 20.4734 35.3381 20.8978ZM40.2579 26.5404C41.2319 26.8899 42.8802 28.5876 43.3547 29.7111C44.054 31.334 43.9791 32.8819 43.105 34.4049C40.8074 38.3996 35.9374 38.4995 33.3152 34.6296C32.1164 32.857 32.1913 30.61 33.49 28.7125C35.0384 26.4904 37.7605 25.6166 40.2579 26.5404ZM113.182 37.0015C111.559 38.0251 111.009 40.3221 112.008 41.9199C113.007 43.5927 114.805 44.117 116.553 43.2682C120 41.6203 118.826 36.4522 115.005 36.5271C114.381 36.5271 113.582 36.7268 113.182 37.0015Z" fill="#9B99AB"/>
</g>
<defs>
<clipPath id="clip0_110_7313">
<rect width="120" height="56" fill="white"/>
</clipPath>
</defs>
</svg>
