<svg width="187" height="32" viewBox="0 0 187 32" fill="none" xmlns="http://www.w3.org/2000/svg">
<path d="M135.223 31.9415C134.341 31.5942 131.895 30.4274 131.581 28.1146L127.033 31.9484L116.449 31.9415C115.401 31.6706 113.494 30.7955 112.896 27.9965L108.52 31.9415L99.282 31.9554L95.3401 20.1067L90.4556 31.9484H81.6068L83.2748 27.9757C79.7218 30.7121 78.6223 31.6636 78.3006 31.9623L70.7832 31.9554C67.9558 30.7469 67.7538 27.9479 67.7538 27.9479C64.0886 30.726 62.9517 31.6567 62.6076 31.9554L56.0476 31.9484C53.6316 30.8997 52.8686 28.066 52.8686 28.066C49.2034 30.5663 47.0716 31.9484 47.0716 31.9484H35.156L42.2246 15.0505H35.9264L29.0972 31.9415H20.3082L28.3716 11.1055H22.612L14.0325 31.9415H5.236L15.334 7.15366H0V0H26.8682L25.3572 4.19497H39.9058L38.2602 8.508H52.936L46.204 25.649H53.0631L58.4188 13.3211C58.4188 13.3211 60.4758 8.508 65.2854 8.508H83.8134L77.231 25.774H84.0976L94.6594 0H103.022L96.5743 17.016L106.186 8.50106H116.209L104.129 19.4746L105.909 25.8852L113.329 25.8226L120.735 8.36909H129.09L122.373 25.774H131.985L136.772 14.0573H131.139L133.346 8.38298H138.694L142.397 0H151.036L147.745 8.1399H152.831L150.774 13.9392H145.277L140.751 25.656H150.363L154.888 14.4323C154.888 14.4323 156.818 8.63996 162.443 8.51495H180.545L173.835 25.649H187V31.9415H169.437C169.437 31.9415 165.323 31.4483 164.627 27.9965L160.364 31.9415H154.342C154.342 31.9415 150.49 31.4483 149.944 27.9965L145.553 31.9415H135.223ZM164.71 25.899L169.362 15.0505H163.453L158.8 25.899H164.71ZM68.1204 25.899L72.7804 15.0505H66.8936L62.2186 25.899H68.1204Z" fill="white"/>
</svg>
