<svg width="203" height="56" viewBox="0 0 203 56" fill="none" xmlns="http://www.w3.org/2000/svg">
<g clip-path="url(#clip0_110_7323)">
<path d="M29.6274 23.5254C28.0328 23.5254 26.7738 24.8996 26.7738 26.6102C26.7738 28.3209 28.0607 29.6951 29.6274 29.6951C31.2221 29.6951 32.4811 28.3209 32.4811 26.6102C32.4811 24.8996 31.1941 23.5254 29.6274 23.5254ZM19.4159 23.5254C17.8212 23.5254 16.5623 24.8996 16.5623 26.6102C16.5623 28.3209 17.8492 29.6951 19.4159 29.6951C21.0106 29.6951 22.2695 28.3209 22.2695 26.6102C22.2975 24.8996 21.0106 23.5254 19.4159 23.5254Z" fill="#9B99AB"/>
<path d="M43.2242 0.193359H5.73525C2.57387 0.193359 0 2.77342 0 5.94241V43.5216C0 46.6906 2.57387 49.2706 5.73525 49.2706H37.461L35.9782 44.1385L39.5593 47.4478L42.9445 50.5607L48.9875 55.8049V5.94241C48.9595 2.77342 46.3856 0.193359 43.2242 0.193359ZM32.4252 36.5105C32.4252 36.5105 31.418 35.3046 30.5787 34.267C34.2437 33.2294 35.6425 30.9578 35.6425 30.9578C34.4955 31.715 33.4044 32.2478 32.4252 32.6124C31.0263 33.2013 29.6834 33.5659 28.3685 33.8183C25.6827 34.3231 23.2208 34.1829 21.1225 33.7903C19.5278 33.4818 18.157 33.0611 17.0099 32.5844C16.3665 32.332 15.667 32.0235 14.9676 31.6309C14.8837 31.5748 14.7998 31.5467 14.7158 31.4906C14.6599 31.4626 14.6319 31.4345 14.6039 31.4345C14.1003 31.1541 13.8206 30.9578 13.8206 30.9578C13.8206 30.9578 15.1635 33.1733 18.7165 34.239C17.8772 35.3046 16.8421 36.5386 16.8421 36.5386C10.6592 36.3423 8.30912 32.3039 8.30912 32.3039C8.30912 23.3578 12.3378 16.0944 12.3378 16.0944C16.3665 13.0937 20.1713 13.1778 20.1713 13.1778L20.4511 13.5143C15.4152 14.9446 13.1211 17.1601 13.1211 17.1601C13.1211 17.1601 13.7366 16.8235 14.7718 16.3748C17.7653 15.0568 20.1433 14.7202 21.1225 14.6081C21.2904 14.58 21.4303 14.552 21.5981 14.552C23.3047 14.3276 25.2351 14.2715 27.2494 14.4959C29.9072 14.8044 32.7609 15.5896 35.6705 17.1601C35.6705 17.1601 33.4603 15.0568 28.7042 13.6265L29.0959 13.1778C29.0959 13.1778 32.9287 13.0937 36.9294 16.0944C36.9294 16.0944 40.9581 23.3578 40.9581 32.3039C40.9581 32.2759 38.608 36.3142 32.4252 36.5105ZM74.6702 12.1963H65.3819V22.6567L71.5648 28.2375V18.0855H74.866C76.9643 18.0855 77.9995 19.0951 77.9995 20.7217V28.4899C77.9995 30.1165 77.0203 31.2102 74.866 31.2102H65.3539V37.1275H74.6422C79.6221 37.1556 84.2942 34.6596 84.2942 28.9386V20.5815C84.3222 14.7483 79.6501 12.1963 74.6702 12.1963ZM123.35 28.9386V20.3571C123.35 17.2722 128.889 16.5711 130.568 19.656L135.688 17.5807C133.673 13.1498 130.008 11.8597 126.959 11.8597C121.979 11.8597 117.055 14.7483 117.055 20.3571V28.9386C117.055 34.6035 121.979 37.436 126.847 37.436C129.98 37.436 133.729 35.8936 135.8 31.8552L130.316 29.3312C128.973 32.7807 123.35 31.9393 123.35 28.9386ZM106.424 21.535C104.494 21.1143 103.207 20.4132 103.123 19.2073C103.235 16.3187 107.683 16.2066 110.285 18.9829L114.397 15.814C111.823 12.673 108.914 11.8317 105.92 11.8317C101.36 11.8317 96.9398 14.4117 96.9398 19.2914C96.9398 24.0309 100.577 26.5829 104.577 27.1999C106.62 27.4803 108.886 28.2936 108.83 29.6958C108.662 32.36 103.179 32.2198 100.689 29.191L96.716 32.9209C99.038 35.9216 102.199 37.436 105.165 37.436C109.725 37.436 114.789 34.7998 114.985 29.9762C115.265 23.8907 110.844 22.3482 106.424 21.535ZM87.6794 37.0995H93.9463V12.1963H87.6794V37.0995ZM193.348 12.1963H184.06V22.6567L190.243 28.2375V18.0855H193.544C195.642 18.0855 196.677 19.0951 196.677 20.7217V28.4899C196.677 30.1165 195.698 31.2102 193.544 31.2102H184.032V37.1275H193.348C198.328 37.1556 203 34.6596 203 28.9386V20.5815C203 14.7483 198.328 12.1963 193.348 12.1963ZM147.774 11.8597C142.626 11.8597 137.506 14.6641 137.506 20.4132V28.9106C137.506 34.6035 142.654 37.464 147.83 37.464C152.977 37.464 158.097 34.6035 158.097 28.9106V20.4132C158.097 14.6922 152.921 11.8597 147.774 11.8597ZM151.802 28.9106C151.802 30.7054 149.788 31.6309 147.802 31.6309C145.787 31.6309 143.773 30.7615 143.773 28.9106V20.4132C143.773 18.5903 145.731 17.6088 147.69 17.6088C149.732 17.6088 151.802 18.4781 151.802 20.4132V28.9106ZM180.591 20.4132C180.451 14.58 176.478 12.2243 171.358 12.2243H161.426V37.1275H167.777V29.2191H168.896L174.659 37.1275H182.493L175.723 28.574C178.716 27.6205 180.591 25.0124 180.591 20.4132ZM171.47 23.7785H167.777V18.0855H171.47C175.415 18.0855 175.415 23.7785 171.47 23.7785Z" fill="#9B99AB"/>
</g>
<defs>
<clipPath id="clip0_110_7323">
<rect width="203" height="56" fill="white"/>
</clipPath>
</defs>
</svg>
