<svg width="97" height="56" viewBox="0 0 97 56" fill="none" xmlns="http://www.w3.org/2000/svg">
<g clip-path="url(#clip0_110_7305)">
<path d="M69.4175 9.16925H65.3106V17.1512C65.3106 19.7529 68.1166 21.9757 71.5858 21.9757C75.0551 21.9757 78.0907 19.7276 78.0907 17.1512V9.16925H73.9837V16.3681C73.9837 17.5553 72.9633 18.5152 71.7134 18.5152C70.4379 18.5152 69.4175 17.5553 69.4175 16.3429V9.16925ZM4.26704 4.77414V21.3442H0.00700378V1.36415H7.68527C11.027 1.36415 13.7565 4.04163 13.7565 7.30007C13.7565 10.0786 11.7923 12.4024 9.1393 13.0087L15.0574 21.3442H9.9811L5.72107 14.8021V10.0281H6.71592C8.29749 10.0281 9.57296 8.86614 9.57296 7.42636C9.57296 5.98659 8.37402 4.77414 6.79245 4.77414H4.26704ZM43.4747 21.3442V0.404297H39.4442V10.2807C38.3728 9.24503 37.0209 8.66407 35.4648 8.66407C32.1486 8.66407 29.4446 11.5689 29.4446 15.1809C29.4446 18.7678 32.1486 21.6978 35.4648 21.6978C37.0464 21.6978 38.5259 21.0916 39.4442 19.9802V21.3442H43.4747ZM36.6127 18.2878C34.9801 18.2878 33.6536 16.8481 33.6536 15.0799C33.6536 13.3118 34.9801 11.872 36.6127 11.872C38.2453 11.872 39.5718 13.3118 39.5718 15.0799C39.5463 16.8481 38.2198 18.2878 36.6127 18.2878ZM60.4128 10.4827C61.5097 9.47236 62.1984 8.10836 62.1984 6.61807C62.1984 5.25407 61.6627 4.01637 60.7444 3.03126C59.7751 1.99563 58.0915 1.36415 55.7956 1.36415H48.9337V21.3442H57.8109C61.2036 21.2937 63.9586 18.7425 63.9586 15.6104C63.9331 13.337 63.1168 11.7204 60.4128 10.4827ZM56.9946 17.8837H53.1427V4.95096H55.8466C57.0201 4.95096 58.0149 5.83503 58.0149 7.02222C58.0149 8.2094 57.0201 9.16925 55.8466 9.16925H54.4181V12.7813H57.0456C58.4741 12.7813 59.5455 13.9432 59.5455 15.3578C59.4945 16.7723 58.5506 17.8079 56.9946 17.8837Z" fill="#9B99AB"/>
<path d="M18.6287 13.6907C18.6287 12.3519 19.7256 11.2658 21.0776 11.2658C22.4296 11.2658 23.5265 12.3519 23.5265 13.6907H18.6287ZM27.5059 15.964C27.5314 15.6861 27.5569 15.4083 27.5569 15.1304C27.608 10.8111 24.7509 8.46199 21.0776 8.46199C17.4043 8.46199 14.4197 11.4426 14.4197 15.1304C14.4197 18.8183 17.4043 21.7989 21.0776 21.7989C23.8836 21.7989 26.0774 20.5359 27.1998 18.5657L23.9346 17.0754C23.5265 17.9595 22.5571 18.5909 21.4092 18.5909C19.9042 18.5909 18.6542 17.4543 18.6542 15.964H27.5059ZM79.9784 0.404297H84.0088V21.3442H79.9784V0.404297ZM86.8403 0.404297H90.8708V21.3442H86.8403V0.404297Z" fill="#9B99AB"/>
<path d="M36.1787 35.1855C36.1787 29.78 40.5918 25.4102 46.0508 25.4102C51.5097 25.4102 55.9228 29.78 55.9228 35.1855C55.9228 40.591 51.5097 44.9608 46.0508 44.9608C40.5918 44.9608 36.1787 40.5657 36.1787 35.1855Z" fill="#D2D1DB"/>
<path fill-rule="evenodd" clip-rule="evenodd" d="M38.1178 29.377C38.2708 29.4528 38.4239 29.5286 38.6024 29.6296C39.3422 30.1348 39.8269 30.5642 40.9493 31.4988C41.2809 31.8272 41.6635 32.3576 41.9441 32.686C42.5564 33.4437 42.99 33.9742 43.0665 34.6057C43.2451 35.8686 43.4237 36.5759 43.9083 37.8641C43.9594 37.9904 44.1634 38.1672 44.291 38.3188C44.5971 38.6977 44.7246 39.3039 45.2858 39.6323C45.592 39.8091 45.643 39.8343 45.745 39.9101C45.8981 40.0364 45.643 40.4911 44.8522 40.39C45.2603 40.5921 45.2093 41.0468 44.6226 41.072C43.4747 41.1226 42.7604 40.4658 42.6074 40.289C42.5308 40.2132 42.3013 40.5163 41.8931 40.6679C41.485 40.87 40.9238 40.6679 40.4901 40.7437C40.082 40.8194 39.5463 41.072 39.1126 41.0973C38.3473 41.1226 38.2453 40.5921 38.2453 40.1374V39.9354C38.1688 40.2132 37.8882 40.6931 37.8882 40.6931C37.7861 40.9205 37.6331 41.1983 37.3525 41.2994L36.5362 41.4004C35.8985 41.6783 35.2607 41.8803 34.5975 42.1077C34.2149 42.1834 33.7812 42.1077 33.5006 41.8803C33.271 41.7035 33.1435 41.4762 33.0159 41.2488C32.8884 41.1983 32.7098 41.2489 32.5568 41.1983C32.4292 41.1731 32.3527 41.072 32.2762 40.9963L31.7149 40.0617C31.6639 39.9354 31.6639 39.7586 31.7149 39.6323C31.817 39.4302 32.0466 39.3292 32.2762 39.3292C32.6843 39.3039 33.1435 39.1776 33.5516 39.3292C33.7302 39.1271 34.0108 39.1523 34.2659 39.1018C34.1638 38.9503 34.0108 38.8745 33.8832 38.7482C33.1435 38.925 32.3272 38.7987 31.6129 38.6724C30.9497 38.5209 30.3885 38.8997 29.7252 38.7987L29.5212 39.2281C29.215 39.5565 29.1895 40.1122 28.7304 40.3395C28.3988 40.4153 28.1437 40.6426 27.8631 40.7942C27.3529 41.072 26.6641 40.9457 26.1029 40.8447C25.8733 40.8194 25.7203 40.8447 25.5162 40.9205C25.3376 41.0468 25.1336 41.2489 24.9295 41.4004C24.5979 41.5267 24.3173 41.8046 23.9602 41.8298C23.7561 41.8298 23.552 41.7035 23.3479 41.754C23.0928 42.0319 22.9653 42.4866 22.5571 42.6129C22.149 42.7391 21.6388 42.6381 21.2307 42.5371C21.1031 42.5876 21.0266 42.6886 20.8735 42.6634C20.5929 42.5876 20.3123 42.5118 20.0572 42.3603C19.9552 42.2592 19.9297 42.1329 19.9042 42.0319C19.9042 41.8551 20.0572 41.7035 20.1338 41.552C20.1593 41.3751 20.1593 41.1226 20.2358 40.9457C20.3634 40.6679 20.644 40.4911 20.9246 40.3648C20.9501 40.1627 21.0776 39.9859 21.2562 39.8849C21.5878 39.708 21.9449 39.3039 22.3786 39.5312L22.8377 39.9101C23.2459 39.7333 23.1439 39.3292 23.3479 39.0008C23.45 38.7734 23.5775 38.5209 23.8326 38.5209C24.0112 38.4956 24.2152 38.5461 24.3938 38.5209C24.6489 38.4451 24.9295 38.344 25.1081 38.142L25.0826 37.9904C24.8275 37.5105 24.7509 36.9295 24.7254 36.3486C24.2663 36.3991 23.7816 36.4749 23.2969 36.3738C22.5827 36.2728 21.8939 35.7171 21.6133 35.0098C21.3072 34.3278 21.4347 33.368 21.9194 32.787C22.3021 32.3323 22.7357 31.9282 23.1949 31.5746C23.0418 31.524 22.8633 31.5493 22.7102 31.4988C22.047 31.3977 21.3837 30.8168 21.2307 30.16C21.1286 29.7306 21.2307 29.3265 21.4347 28.9729C21.5113 28.8971 21.5878 28.8213 21.7153 28.8718C22.047 28.9981 22.149 29.1749 22.4551 29.3265L22.6337 29.4275C23.4755 29.7054 24.5979 29.7054 24.9295 30.741C25.1336 31.5493 24.6234 32.1555 24.0367 32.6102C23.5775 32.9386 23.1183 33.3427 22.8888 33.8226C22.7867 34.1763 22.8377 34.5299 23.1439 34.7825C23.45 35.0856 23.9857 35.0856 24.3683 34.934C25.0826 34.6309 25.7458 34.1763 26.3835 33.6963C26.9957 33.2417 27.7355 33.0649 28.5263 33.0396C28.8834 32.9638 29.1895 32.8123 29.4701 32.5849C29.9548 32.1303 30.465 31.7514 31.0772 31.5998C31.3578 31.5493 31.6384 31.524 31.919 31.4988C32.1486 31.3977 32.3017 31.1199 32.4802 30.9936C33.322 30.2611 34.4444 30.2863 35.3373 29.7054C35.8474 29.3265 36.4086 29.0739 37.0719 29.0992C37.378 29.1244 37.6586 29.1749 37.9137 29.276L38.1178 29.377ZM38.9596 37.9651C38.3984 37.9904 38.0412 38.1167 37.6586 38.1672C37.6841 38.5209 37.8882 38.824 38.1688 39.2029C38.3218 38.6219 38.8065 38.3946 38.9596 37.9651ZM53.3212 38.0914C53.5763 38.4703 53.7294 38.8492 53.959 39.2534C54.1885 38.824 54.3926 38.4198 54.5967 38.1672C54.5712 38.142 53.9079 38.2177 53.3212 38.0914ZM53.8569 39.9606C53.8314 40.0364 53.7804 40.0617 53.6784 40.0617C53.7549 40.4153 53.4998 41.072 52.8621 41.0973C52.4284 41.1226 51.7142 40.6931 51.306 40.6679C50.8724 40.6426 50.0816 40.971 49.6224 40.289C49.0102 41.0215 48.2959 41.2236 47.6837 41.1983C47.3266 41.1983 46.9439 40.9963 47.4796 40.5416C46.3062 40.9205 46.3062 40.1374 46.5103 39.9859C46.6378 39.8849 46.7909 39.8091 47.2245 39.3797C48.8571 37.6873 48.2449 34.7572 50.0306 32.8123C50.7193 32.0545 51.2805 31.6251 52.6835 30.64C53.1682 30.3116 53.6529 29.8317 54.112 29.5033L54.1375 29.5538V29.5286C54.4181 29.3265 54.6732 29.1244 54.9793 29.0486C55.6171 28.9729 56.2038 29.1749 56.6884 29.5033C56.9435 29.6801 57.1476 29.8822 57.3517 30.1348C57.5047 30.2863 57.7343 30.2863 57.9384 30.3621C58.5251 30.4632 59.0353 30.6905 59.52 30.9936C59.8516 31.1957 60.1322 31.5493 60.5403 31.5998C61.025 31.6756 61.4587 31.8272 61.8923 32.0797C62.4025 32.4081 62.8617 32.8123 63.4739 32.9133C64.6983 33.0396 65.7187 33.7216 66.6881 34.4036C67.2493 34.732 67.9125 35.1109 68.6012 34.8835C68.8053 34.8077 68.9584 34.6309 69.0094 34.4541C69.0604 33.9995 68.7798 33.6458 68.4992 33.3175C67.9125 32.6355 66.8921 32.0545 67.0197 31.0694C67.1982 30.3369 68.0145 29.9075 68.6523 29.7054C69.0094 29.5791 69.443 29.6296 69.7492 29.3265C69.9022 29.2255 69.9787 28.8718 70.2338 28.9981C70.4379 29.1244 70.4634 29.377 70.4889 29.6043C70.591 30.3116 70.4379 31.0189 69.7747 31.423C69.4686 31.6251 69.1369 31.7009 68.7798 31.7766C69.3155 32.206 69.8512 32.7365 70.1573 33.3427C70.3359 33.6963 70.4379 33.9995 70.4634 34.4036C70.4379 35.1614 69.9787 35.8181 69.3155 36.197C68.9329 36.3991 68.4992 36.4749 68.04 36.4749C67.8615 36.4749 67.7084 36.4243 67.5554 36.4243C67.6319 36.778 67.6319 37.2579 67.5554 37.662C67.5299 37.8641 67.4023 38.0914 67.4023 38.344C67.5044 38.4703 67.6574 38.4703 67.785 38.4703C68.1166 38.4703 68.5247 38.4451 68.7033 38.7987C68.8563 39.1271 68.9329 39.506 69.0604 39.8343C69.1114 39.8849 69.1369 40.0111 69.2135 39.9859C69.443 39.7838 69.6726 39.506 70.0042 39.5817C70.3104 39.7838 70.6165 40.0111 70.9226 40.2385C70.9991 40.3143 71.0246 40.4153 71.0501 40.5416C71.3052 40.6426 71.6368 40.8194 71.7134 41.1226C71.7644 41.3246 71.7389 41.5267 71.7899 41.7035C71.8664 41.9056 72.0705 42.1582 71.9174 42.4108L71.8154 42.4866L70.8461 42.7897C70.7695 42.7897 70.693 42.7391 70.6165 42.6634C70.1063 42.6381 69.4941 42.7897 69.0859 42.436C68.9074 42.2845 68.7798 42.1077 68.6523 41.9056C68.3462 42.0571 67.9125 42.1582 67.6064 41.9561C66.9687 41.4762 66.3309 40.9963 65.4636 41.0215C65.081 41.0973 64.6218 41.1983 64.2392 41.0468C63.882 40.7942 63.4739 40.6679 63.1933 40.289C62.7851 39.8596 62.7851 39.3544 62.6321 38.824C62.0709 38.9503 61.4587 38.8745 60.8975 38.8492C60.4383 38.824 60.0046 38.8997 59.571 39.0008C59.0353 39.1018 58.4486 39.1523 57.8874 39.1271L57.6068 39.3292C57.7343 39.3544 57.8619 39.3544 57.9639 39.4554L58.0659 39.5565C58.5251 39.607 59.0608 39.5312 59.4945 39.6323C59.5965 39.6575 59.6985 39.7586 59.7496 39.8596C59.8006 39.9859 59.8006 40.1374 59.724 40.2385C59.4945 40.5416 59.3669 40.8952 59.0608 41.1478C58.9843 41.2489 58.7547 41.1226 58.7292 41.2994C58.6272 41.754 58.1935 42.1329 57.7598 42.234C57.5813 42.2592 57.3772 42.234 57.2241 42.1834C56.6885 42.0066 56.1528 41.8551 55.6171 41.7035C55.4385 41.653 55.2854 41.4762 55.1324 41.3751C54.9028 41.3751 54.5712 41.4509 54.4181 41.2488C54.3416 41.1983 54.2651 41.0215 54.2396 40.9457C54.061 40.7184 53.9335 40.3143 53.8569 39.9606Z" fill="#D2D1DB"/>
<path fill-rule="evenodd" clip-rule="evenodd" d="M37.8619 32.5583C38.015 32.9372 38.015 33.4424 37.913 33.8465C37.8875 33.8718 37.8619 33.8718 37.8364 33.8465C37.7599 33.4929 37.6834 33.1393 37.5558 32.7856C37.4793 32.5836 37.2242 32.4067 37.3263 32.1794C37.3773 32.1289 37.4793 32.1289 37.5558 32.1542C37.6834 32.2805 37.7599 32.4067 37.8619 32.5583ZM41.9434 36.0946C42.224 36.423 42.4281 36.7766 42.3261 37.206C42.275 37.2818 42.3005 37.4333 42.173 37.4586C42.122 37.4839 42.071 37.4333 42.071 37.3828C42.0455 37.1555 42.0455 36.9029 41.9179 36.7261C41.7649 36.5745 41.5863 36.2714 41.3312 36.2714C41.1526 36.3219 41.0251 36.524 40.923 36.6503C40.923 36.6756 40.8975 36.6756 40.872 36.6503C40.77 36.3977 40.9741 36.1956 41.0506 35.9936C41.2036 35.842 41.1781 35.4126 41.5098 35.5389C41.7393 35.6904 41.7904 35.943 41.9434 36.0946ZM41.4077 39.1004C41.4332 39.252 41.4332 39.4793 41.2802 39.5804C41.1271 39.6309 40.923 39.6561 40.7445 39.6309C40.6935 39.6056 40.6424 39.5804 40.668 39.5298C40.7445 39.3025 40.9741 39.0499 41.2292 38.9994C41.2802 38.9994 41.3822 38.9994 41.4077 39.1004ZM22.786 29.8808C23.3982 30.0324 24.0615 30.0324 24.5206 30.5123C24.7757 30.8154 24.8012 31.3459 24.5972 31.649C24.24 32.2552 23.5258 32.5583 23.0921 33.0887C22.6585 33.4424 22.5054 33.9981 22.633 34.5538C22.786 35.0337 23.2707 35.3621 23.7554 35.3873C24.5206 35.4126 25.0818 35.0337 25.6941 34.6801C26.3063 34.2507 26.8675 33.695 27.5562 33.5182C28.0154 33.3666 28.5256 33.4424 28.9847 33.2656C29.4694 33.1645 29.8521 32.7604 30.2347 32.4067C30.6684 32.0531 31.1785 31.851 31.7397 31.8763C32.2499 31.9521 32.5305 31.4974 32.8877 31.1943C33.4744 30.6639 34.2396 30.6133 34.9284 30.3102C35.4131 30.1587 35.7957 29.805 36.2549 29.5777C36.6885 29.4009 37.2752 29.3504 37.7089 29.5272C37.9895 29.6535 38.2956 29.7798 38.5507 29.9819L40.6169 31.6995C40.6424 31.7753 40.719 31.8258 40.77 31.851C41.3567 32.5583 41.9689 33.2403 42.4536 34.0233C42.6067 34.3012 42.6832 34.579 42.7597 34.8822C42.8618 36.0441 43.1679 37.0544 43.5505 38.0648C43.6525 38.2164 43.8566 38.3427 43.9586 38.4942C44.2903 38.9489 44.4943 39.5299 45.03 39.833L45.3361 39.9845C45.3617 40.0098 45.3617 40.0603 45.3361 40.0856L45.2851 40.1361C44.6474 40.2371 44.1627 39.8582 43.8311 39.4036C43.627 38.9994 43.3464 38.57 42.8873 38.3932C42.8618 38.3932 42.8362 38.4184 42.8362 38.4184C42.8873 38.57 43.0403 38.671 43.0913 38.7973C43.2699 39.0752 43.423 39.3783 43.4995 39.6814C43.6015 40.0098 43.9586 40.2371 44.2392 40.4139L44.6474 40.616C44.6984 40.6413 44.7239 40.717 44.6729 40.7676L44.6219 40.7928C43.9331 40.8181 43.3209 40.5907 42.8362 40.0856C42.7342 39.9593 42.5811 39.8582 42.4026 39.8582C42.0965 40.1361 41.7904 40.3887 41.3822 40.4139C40.9486 40.3381 40.4894 40.3381 40.1068 40.4897C39.7496 40.616 39.3925 40.7676 39.0099 40.7676C38.8313 40.7676 38.6272 40.6918 38.5507 40.515C38.5507 40.2876 38.3976 40.035 38.5252 39.8077L38.7803 39.4288C38.7803 39.3783 38.7548 39.3278 38.7038 39.3278C38.6017 39.3025 38.4231 39.4793 38.3721 39.3025C38.3976 38.9236 38.7803 38.671 39.0354 38.4184C39.0864 38.1153 39.2139 37.8375 39.4435 37.5849C39.4435 37.5596 39.418 37.5091 39.367 37.5091C39.0354 37.5596 38.7038 37.6354 38.3466 37.6354C38.066 37.787 37.7089 37.888 37.3773 37.787C37.3007 37.7364 37.3263 37.6607 37.3518 37.6101C37.7089 37.1302 37.8364 36.524 37.7344 35.943C37.7089 35.9178 37.7089 35.8673 37.6579 35.8673C37.6069 35.8673 37.6069 35.9178 37.5813 35.943C37.5048 36.4987 37.3263 36.9281 37.0201 37.4081C36.7906 37.6354 36.4334 37.6354 36.1273 37.7112C36.0508 37.7364 35.9743 37.8122 35.9743 37.888C35.9743 38.0901 36.1018 38.2164 36.1783 38.3932L36.8416 39.6056C36.8671 39.934 36.714 40.2624 36.6375 40.5655C36.663 40.616 36.714 40.5907 36.7651 40.5655C36.9946 40.3634 37.1477 40.0856 37.2497 39.7824C37.2752 39.6561 37.2242 39.5046 37.1732 39.4036L36.4845 38.0396C36.5355 37.9638 36.6375 37.9638 36.714 37.9385C36.8671 37.9385 37.0201 38.0143 37.1732 38.0648C37.3263 38.469 37.5048 38.8984 37.7854 39.252C37.8364 39.4793 37.913 39.7824 37.7599 39.9593C37.6069 40.2624 37.4538 40.515 37.2497 40.7928C37.0712 40.9696 36.8161 40.9444 36.561 40.9696H36.4845C35.8722 41.298 35.2345 41.5001 34.5713 41.7021C34.2907 41.8284 33.959 41.7274 33.7295 41.5506C33.4999 41.3738 33.3978 41.1212 33.2448 40.8938C33.0662 40.6665 32.7856 40.8686 32.5815 40.7423C32.403 40.4644 32.2244 40.1866 32.0714 39.8835C32.0714 39.8077 32.0714 39.7319 32.1479 39.6814C32.3775 39.6056 32.6326 39.6056 32.8877 39.5804C33.1172 39.5551 33.3723 39.6056 33.5254 39.7572C33.8315 40.1108 33.959 40.5907 34.4182 40.8181C34.7753 40.8433 35.0814 40.7423 35.3876 40.5907C35.5661 40.4897 35.7702 40.3381 35.7702 40.1108C35.7447 39.6561 35.4386 39.3025 35.0559 39.0499C34.6733 38.8478 34.2651 38.57 33.9845 38.2164C33.8315 38.0143 33.806 37.787 33.7295 37.5849C33.7039 37.5344 33.6019 37.5344 33.5764 37.5596C33.4233 37.6859 33.5509 37.9133 33.5509 38.0648C33.5764 38.1659 33.6274 38.2921 33.5764 38.3679C33.3468 38.5447 33.0407 38.4437 32.7601 38.469C32.1989 38.4437 31.6632 38.2164 31.0765 38.2669C30.5153 38.2921 29.75 38.671 29.3419 38.1153C29.1378 37.5849 29.1888 36.9534 29.2909 36.423C29.2909 36.3724 29.2398 36.3219 29.1888 36.3219C29.1378 36.2967 29.0868 36.3219 29.0613 36.3724C28.9082 36.9029 28.8827 37.4839 28.7552 38.0396C28.5511 38.5195 28.194 39.0247 27.7093 39.2773C27.2756 39.5046 26.7654 39.5804 26.2298 39.6309C25.2604 39.6561 24.3676 39.833 23.7554 40.6665C23.7043 40.7423 23.6278 40.8181 23.6533 40.9191C23.6788 40.9444 23.7554 40.9696 23.7809 40.9444C24.4441 40.2118 25.2859 39.9087 26.2553 39.9593C27.1736 39.9593 28.0919 39.8077 28.6786 39.0247C28.8317 38.8478 28.9337 38.671 29.0613 38.469C29.1633 38.469 29.2398 38.5953 29.3164 38.6458C29.3419 38.9236 29.1123 39.1004 29.0103 39.3278C28.8827 39.5804 28.7552 39.8835 28.5001 40.035C28.194 40.1108 27.9389 40.3129 27.6583 40.4644C27.3777 40.5907 27.0205 40.6413 26.6889 40.5655C26.2808 40.4897 25.7196 40.3887 25.3114 40.5655C25.1073 40.6918 24.9288 40.9191 24.7247 41.0454C24.4441 41.1717 24.189 41.399 23.8574 41.3738C23.6278 41.3233 23.3472 41.1717 23.1431 41.3738C22.888 41.6011 22.837 42.0053 22.5054 42.1568C22.1228 42.3589 21.7146 42.1568 21.332 42.1315C21.383 41.7527 21.434 41.399 21.6891 41.1212C21.8422 41.0959 21.9697 41.0707 22.0973 40.9696C22.2503 40.8433 22.3524 40.6665 22.4544 40.4897C22.786 40.2876 23.1686 40.1361 23.3727 39.7824C23.5258 39.4541 23.5258 39.151 23.7809 38.8478L23.9084 38.7973L24.5972 38.7468C24.8778 38.6205 25.1329 38.4942 25.3879 38.2921C25.4645 38.2164 25.49 38.0901 25.4645 37.9638C25.3369 37.6354 25.2349 37.4081 25.1584 37.0544C25.0818 36.7008 25.1329 36.3472 25.0818 35.943C25.0563 35.9178 25.0308 35.842 24.9798 35.842C24.5206 35.943 24.087 36.0693 23.5768 35.9936C22.888 35.9178 22.1738 35.4631 21.9187 34.7811C21.6891 34.2002 21.7401 33.3666 22.1738 32.8867C22.5819 32.3815 23.0921 32.0026 23.6023 31.5732C23.6788 31.5227 23.6788 31.4216 23.7043 31.3459C23.7043 31.2448 23.6023 31.169 23.5258 31.1185C23.2197 31.0427 22.8625 31.1438 22.5564 31.0175C22.0207 30.8407 21.6126 30.3355 21.5361 29.7798C21.5106 29.5272 21.5616 29.3251 21.6891 29.123C22.0973 29.4767 22.4034 29.7798 22.786 29.8808ZM21.2555 41.1717V41.2475C21.1279 41.5506 21.0514 41.9042 20.9493 42.2578C20.7198 42.2326 20.5157 42.1568 20.3371 42.081C20.2861 42.0305 20.3371 41.98 20.3371 41.9295C20.5667 41.7274 20.4902 41.4748 20.5412 41.197C20.5667 41.0454 20.7198 40.9191 20.8728 40.8433C21.0514 40.8686 21.1534 41.0454 21.2555 41.1717ZM22.3779 40.1108C22.2503 40.3634 22.0718 40.6665 21.7912 40.8181C21.6891 40.8433 21.5616 40.8433 21.4595 40.7928C21.4085 40.7423 21.3065 40.6918 21.3065 40.5907C21.332 40.4897 21.281 40.3634 21.383 40.3129C21.5871 40.1866 21.7912 40.0603 21.9952 39.8835C22.0462 39.8582 22.1483 39.833 22.1738 39.8835C22.2758 39.9593 22.3524 40.0098 22.3779 40.1108ZM35.158 40.0098C35.1835 40.1108 35.3365 40.2371 35.2345 40.3381C35.0304 40.4897 34.8008 40.5907 34.5202 40.5655C34.3162 40.4139 34.3417 40.1361 34.1631 39.934C34.1121 39.7824 33.8825 39.7824 33.9335 39.6309L34.0101 39.5804C34.2907 39.5804 34.5713 39.5804 34.8519 39.5298C35.1325 39.5046 35.0559 39.833 35.158 40.0098ZM51.2798 35.8925C51.4328 36.0946 51.5604 36.2967 51.6624 36.5493C51.6879 36.5998 51.6624 36.6503 51.6369 36.7008C51.6114 36.7513 51.5604 36.8019 51.4839 36.7513C51.3053 36.7008 51.3308 36.423 51.1012 36.4482C50.9482 36.4482 50.8461 36.5745 50.7186 36.6503C50.489 36.8524 50.1829 37.0544 50.1319 37.3576C50.0809 37.4586 50.1064 37.6354 50.0043 37.6859C49.9533 37.7112 49.8768 37.6607 49.8768 37.6101C49.8513 37.206 49.9788 36.8271 50.2594 36.5493C50.54 36.3219 50.7441 35.9936 50.9737 35.7157C51.1267 35.6904 51.2288 35.7915 51.2798 35.8925ZM51.3818 39.252C51.4328 39.353 51.5349 39.4793 51.4583 39.6056C51.3563 39.6814 51.1777 39.6309 51.0502 39.6309C50.8971 39.5551 50.8461 39.353 50.8461 39.1762C50.8461 39.1257 50.8461 39.1004 50.8971 39.0499C51.0757 39.0499 51.2543 39.1004 51.3818 39.252ZM55.2082 31.5227C55.2847 31.6237 55.2082 31.7247 55.1572 31.8005C54.8001 32.1289 54.3664 32.4825 54.1113 32.8867C54.0093 33.013 53.9327 33.1645 53.8817 33.3161C53.8817 33.3413 53.8562 33.3413 53.8307 33.3413C53.7542 33.1393 53.8562 32.9119 53.9072 32.7099C54.0858 32.2299 54.4939 31.7753 54.9276 31.4469C54.9786 31.4216 55.1572 31.3964 55.2082 31.5227ZM56.6622 29.9061C56.9428 30.0829 57.0449 30.4618 57.3765 30.5376C57.9377 30.6639 58.4989 30.7902 59.0091 31.0427C59.3662 31.2196 59.6978 31.4722 60.0294 31.75C60.3355 31.9016 60.7182 31.9016 61.0498 32.0026C61.5345 32.1289 61.9171 32.4825 62.3508 32.7604C62.912 33.1898 63.7028 33.1393 64.3405 33.4171C65.3609 33.7455 66.1772 34.5285 67.121 34.9832C67.6057 35.2358 68.3454 35.3368 68.8301 35.059C69.1617 34.8316 69.3658 34.5285 69.2893 34.0991C69.1107 33.0635 67.9628 32.533 67.4271 31.6742C67.3251 31.4722 67.2485 31.1943 67.2996 30.967C67.5036 30.4618 68.0393 30.1839 68.4985 30.0071C68.8556 29.8303 69.3148 29.8808 69.6464 29.6788C69.7739 29.603 69.876 29.5019 69.9525 29.4262C70.029 29.4262 70.029 29.5019 70.0546 29.5525C70.1566 30.1587 70.0546 30.7902 69.5189 31.1438C69.3148 31.2953 69.0597 31.3459 68.8301 31.3964C68.626 31.4722 68.2179 31.3206 68.2434 31.6742C68.2944 31.851 68.4475 31.9521 68.575 32.0784C69.2893 32.6593 69.9525 33.4171 70.029 34.3264C70.0546 35.0337 69.5699 35.6399 68.9577 35.943C68.4985 36.1199 67.9373 36.1956 67.4526 36.0693C67.3251 36.0441 67.121 35.9178 67.019 36.0946C66.9935 36.2967 67.121 36.4482 67.121 36.625C67.172 36.9534 67.172 37.3828 67.07 37.7112C67.019 37.9638 66.7639 38.2669 66.9935 38.5195C67.223 38.8731 67.6822 38.7721 68.0648 38.8226C68.2689 38.8479 68.3454 39.0752 68.3965 39.2267C68.473 39.4288 68.473 39.6561 68.5495 39.8077C68.5495 40.1866 68.9832 40.3381 69.1872 40.5907C69.4423 40.8686 69.6719 41.3485 70.1056 41.3233C70.2586 41.6264 70.3352 41.9042 70.3862 42.2578L70.3352 42.3084C69.978 42.3084 69.4933 42.4094 69.2383 42.1568C68.9321 41.9547 68.8301 41.399 68.3709 41.5506C68.1669 41.7021 67.8863 41.7527 67.6567 41.6516C67.4271 41.5758 67.274 41.3738 67.07 41.2475C66.4578 40.7928 65.6415 40.5655 64.8507 40.7423C64.3915 40.8686 64.0344 40.5402 63.6773 40.3381C63.1926 40.1361 63.065 39.6309 62.963 39.2015L62.8865 38.671C62.8865 38.6205 62.9375 38.57 62.9885 38.5447H63.065C63.3456 39.1762 63.8813 39.8835 64.5701 40.1108C65.2078 40.3634 65.7945 40.035 66.4833 40.1613C67.121 40.2371 67.6312 40.6413 68.1159 41.0201C68.1669 41.0201 68.1924 40.9949 68.2179 40.9444V40.8938C67.6312 40.1613 66.8149 39.7824 65.871 39.8582C65.0803 40.0098 64.315 39.7572 63.8558 39.1004C63.6007 38.7216 63.4222 38.3174 63.3456 37.888C63.2691 37.3828 63.1671 36.8271 62.9885 36.3724C62.9375 36.3472 62.8865 36.2967 62.8354 36.3219L62.7844 36.3977C62.861 36.8776 63.014 37.4586 62.8354 37.9638C62.7079 38.3679 62.2998 38.5195 61.9171 38.5447C61.5345 38.57 61.1773 38.4942 60.7692 38.4942C59.8509 38.469 59.0346 38.8226 58.0907 38.7468C58.1673 38.5195 58.3203 38.2921 58.2438 38.0396C58.2183 37.989 58.1418 37.989 58.0907 37.989C57.9122 38.0901 57.9377 38.3174 57.8356 38.469C57.6316 38.7973 57.2489 39.1004 56.8663 39.1762C56.5857 39.3783 56.3306 39.6561 56.101 39.9087C56.0245 39.9845 56.0245 40.1361 56.05 40.2371C56.2286 40.6918 56.7643 40.7423 57.1724 40.8686C57.3765 40.8938 57.555 40.8181 57.6571 40.6413C57.8356 40.3634 57.8612 39.9087 58.2693 39.8582H59.1621C59.2387 39.8835 59.2897 39.934 59.3407 40.0098L59.3152 40.1361C59.1111 40.3634 59.0346 40.6918 58.7795 40.8433C58.6264 40.8938 58.4479 40.8433 58.3458 40.9696C58.2948 41.2727 58.2183 41.6011 57.9122 41.7527C57.6826 41.9547 57.351 41.8537 57.0959 41.7779C56.6112 41.6011 56.1265 41.5001 55.6419 41.3485C55.4378 41.298 55.3613 41.0454 55.1317 40.9949C54.9276 40.9444 54.698 41.0959 54.5195 40.9191C54.4174 40.6918 54.3664 40.5402 54.3154 40.2876C54.2388 40.1361 54.1878 39.9593 54.1623 39.7824C54.1368 39.6309 54.1623 39.5298 54.2133 39.4036L54.8766 38.2164C54.9276 38.1406 54.9786 38.0648 55.0551 38.0396C55.2082 38.0648 55.3868 38.1406 55.5398 38.2164L55.5143 38.2921L54.8256 39.3278C54.6725 39.6561 54.8256 40.035 54.9786 40.3129C55.0041 40.3381 55.0296 40.3887 55.0551 40.3634C55.0296 40.1613 55.0041 39.9593 55.0551 39.7319C55.1062 39.5298 55.2337 39.353 55.3357 39.1762L55.8714 38.3932C55.9225 38.2669 55.9225 38.0648 55.8204 37.9385C55.5908 37.7112 55.2592 37.6354 55.0551 37.3323C54.6215 36.7513 54.5705 36.0693 54.5195 35.3368C54.5195 35.2863 54.4684 35.2105 54.3919 35.1853C54.3409 35.16 54.2899 35.2358 54.2644 35.261C54.1368 35.741 54.2133 36.3219 54.3409 36.7513C54.4174 37.0797 54.5705 37.4081 54.7235 37.7112C54.749 37.7617 54.698 37.8375 54.647 37.8627C54.2899 37.888 53.9327 37.8627 53.6011 37.8122C53.142 37.7364 52.8103 37.3828 52.4277 37.105C52.3767 37.0797 52.3512 37.1302 52.3257 37.1555C52.4277 37.6607 52.9889 37.9638 53.1675 38.4184C53.2695 38.7973 53.6521 39.0752 53.7287 39.4793C53.7287 39.5298 53.6776 39.6056 53.6266 39.6309C53.4991 39.6561 53.3715 39.5804 53.244 39.6561C53.2185 39.8835 53.3715 40.1108 53.2695 40.3129C53.142 40.515 52.9634 40.7423 52.7338 40.7423C52.2746 40.5907 51.8155 40.3887 51.3563 40.2624C51.0247 40.2371 50.6931 40.2876 50.387 40.3129C50.0809 40.2624 49.8768 39.9845 49.6472 39.833C49.5707 39.8077 49.4941 39.8077 49.4431 39.8582C48.9329 40.3634 48.3717 40.9191 47.6065 40.8938C47.5554 40.8938 47.5299 40.8433 47.5299 40.7928V40.7423C47.8616 40.4392 48.2697 40.1361 48.4228 39.7067C48.5248 39.353 48.8309 39.1004 48.9584 38.7721C48.984 38.7216 48.9329 38.6963 48.8819 38.671L48.8054 38.7216C48.4228 39.1004 48.1422 39.5298 47.8616 39.934C47.581 40.2118 47.1728 40.3887 46.7391 40.2876C46.6881 40.2624 46.6881 40.1866 46.7136 40.1361C48.2952 39.1762 48.4738 37.4586 48.9074 35.8925C49.2135 34.8569 49.4431 33.796 50.2594 32.9624C51.4839 31.6237 53.0144 30.8407 54.3664 29.6788C54.5705 29.5019 54.7745 29.3251 55.0296 29.3251C55.6929 29.2746 56.2031 29.5272 56.6622 29.9061ZM71.228 41.0707C71.3555 41.2475 71.3045 41.5253 71.3555 41.7274C71.381 41.879 71.5851 42.0053 71.4831 42.1568L70.9219 42.3336C70.8198 42.3336 70.8708 42.2073 70.8198 42.1568C70.7688 41.8284 70.6923 41.6011 70.5902 41.298C70.5647 41.1212 70.7433 40.9949 70.8708 40.8938C70.9984 40.8433 71.1004 40.9949 71.228 41.0707ZM69.927 39.934C70.1311 40.1108 70.4117 40.2371 70.5647 40.4644C70.5902 40.5655 70.5137 40.6665 70.4627 40.7423C70.3862 40.8181 70.2841 40.8686 70.1566 40.8686C70.029 40.8686 69.927 40.7928 69.8505 40.6918C69.7229 40.4897 69.5444 40.3129 69.4933 40.1108C69.5699 39.9845 69.7484 39.7824 69.927 39.934ZM57.6316 39.7319C57.6061 39.9845 57.5295 40.2118 57.4275 40.4392C57.351 40.5907 57.1214 40.5402 56.9683 40.515C56.8153 40.4644 56.5602 40.4392 56.5347 40.2118C56.5092 40.0098 56.6112 39.8077 56.7132 39.6561C56.9428 39.6309 57.2234 39.6814 57.453 39.6309C57.555 39.6309 57.6316 39.6561 57.6316 39.7319Z" fill="#9B99AB"/>
<path d="M5.1084 55.4693H8.65418V54.7368H5.92469V52.2613H8.55214V51.5288H5.92469V49.7102H8.65418V48.9776H5.1084V55.4693ZM12.1234 55.4693H12.9397V50.6195L17.8885 55.7471V48.9776H17.0722V53.7769L12.1234 48.6493V55.4693ZM21.4088 55.4693H24.929V54.7368H22.2251V52.2613H24.8525V51.5288H22.2251V49.7102H24.929V48.9776H21.4088V55.4693ZM30.286 52.6402C31.2298 52.5392 31.8675 51.7562 31.8675 50.8216C31.8675 50.1901 31.5614 49.5839 31.0002 49.2555C30.4901 48.9524 29.8523 48.9524 29.2656 48.9524H28.2708V55.4693H29.087V52.716H29.4187L31.3574 55.4693H32.3522L30.286 52.6402ZM29.087 49.6849H29.3166C30.1329 49.6849 31.1023 49.8365 31.1023 50.8468C31.1023 51.8825 30.1839 52.034 29.3676 52.034H29.1126V49.6849H29.087ZM38.2448 52.1856V52.9181H39.954C39.9285 53.979 38.8316 54.8378 37.8112 54.8378C36.3827 54.8378 35.2603 53.5496 35.2603 52.1856C35.2603 50.7205 36.4082 49.5334 37.8877 49.5334C38.704 49.5334 39.4948 49.9628 39.954 50.5942L40.5407 50.0385C39.9029 49.2302 38.8826 48.7756 37.8622 48.7756C35.9745 48.7756 34.444 50.3164 34.444 52.1856C34.444 53.979 35.9235 55.5703 37.7602 55.5703C39.5968 55.5703 40.8723 54.2063 40.8723 52.4129V52.1603H38.2448V52.1856ZM45.3619 52.6402V55.4693H46.1782V52.6402L48.321 48.9776H47.3771L45.7701 51.7562L44.1375 48.9776H43.1936L45.3619 52.6402ZM53.9585 55.4693H55.285C57.3512 55.4693 59.0093 54.4084 59.0093 52.1856C59.0093 50.0133 57.3257 48.9524 55.3105 48.9524H53.9585V55.4693ZM54.7748 49.7102H55.0554C56.739 49.7102 58.1675 50.3164 58.1675 52.2361C58.1675 54.1305 56.7135 54.7368 55.0554 54.7368H54.7748V49.7102ZM64.1367 52.6402C65.0805 52.5392 65.7183 51.7562 65.7183 50.8216C65.7183 50.1901 65.4121 49.5839 64.8509 49.2555C64.3408 48.9524 63.703 48.9524 63.1163 48.9524H62.1215V55.4693H62.9378V52.716H63.2694L65.2081 55.4693H66.2029L64.1367 52.6402ZM62.9378 49.6849H63.1673C63.9836 49.6849 64.953 49.8365 64.953 50.8468C64.953 51.8825 64.0346 52.034 63.2184 52.034H62.9633V49.6849H62.9378ZM68.7794 48.9776H69.5956V55.4945H68.7794V48.9776ZM72.8863 55.4693H73.7026V50.6195L78.6259 55.7471V48.9776H77.8096V53.7769L72.8863 48.6493V55.4693ZM82.7584 51.7814V48.9776H81.9421V55.4693H82.7584V52.7665L83.09 52.4382L85.5644 55.4693H86.6613L83.6512 51.8825L86.6103 48.9776H85.5389L82.7584 51.7814ZM95.0793 0.277852C95.5385 0.277852 95.9212 0.429407 96.2273 0.757777C96.5334 1.06089 96.7119 1.46504 96.7119 1.89444C96.7119 2.34911 96.5589 2.728 96.2273 3.03111C95.9212 3.35948 95.513 3.51103 95.0793 3.51103C94.6202 3.51103 94.2375 3.35948 93.9059 3.03111C93.5998 2.728 93.4212 2.32385 93.4212 1.89444C93.4212 1.43978 93.5743 1.06089 93.9059 0.757777C94.2375 0.454666 94.6202 0.277852 95.0793 0.277852ZM96.9925 1.89444C96.9925 1.38926 96.814 0.934591 96.4313 0.555703C96.0487 0.202074 95.615 0 95.0793 0C94.5437 0 94.11 0.176815 93.7274 0.555703C93.3447 0.934591 93.1662 1.364 93.1662 1.89444C93.1662 2.42489 93.3447 2.85429 93.7274 3.23318C94.11 3.61207 94.5437 3.78888 95.0793 3.78888C95.615 3.78888 96.0487 3.61207 96.4313 3.23318C96.7885 2.87955 96.9925 2.42489 96.9925 1.89444ZM95.5895 1.49029C95.5895 1.64185 95.513 1.76815 95.3599 1.81866C95.2834 1.84392 95.1559 1.86918 95.0028 1.86918H94.6712V1.11141H94.9773C95.1814 1.11141 95.3344 1.13667 95.4365 1.18718C95.5385 1.26296 95.5895 1.33874 95.5895 1.49029ZM94.3141 0.858814V2.93007H94.6712V2.12178H94.9518C95.1559 2.12178 95.2834 2.14703 95.3599 2.19755C95.4875 2.27333 95.564 2.42489 95.564 2.67748V2.93007H95.9212L95.8956 2.90481C95.8956 2.87955 95.8701 2.85429 95.8701 2.80377V2.50066C95.8701 2.39963 95.8191 2.29859 95.7681 2.17229C95.6916 2.07126 95.564 1.99548 95.411 1.97022C95.5385 1.94496 95.6405 1.9197 95.7171 1.86918C95.8446 1.79341 95.9212 1.64185 95.9212 1.46504C95.9212 1.21244 95.8191 1.03563 95.5895 0.934591C95.462 0.884073 95.2834 0.858814 95.0028 0.858814H94.3141Z" fill="#9B99AB"/>
</g>
<defs>
<clipPath id="clip0_110_7305">
<rect width="97" height="55.7471" fill="white"/>
</clipPath>
</defs>
</svg>
