<svg width="125" height="56" viewBox="0 0 125 56" fill="none" xmlns="http://www.w3.org/2000/svg">
<g clip-path="url(#clip0_110_7299)">
<path fill-rule="evenodd" clip-rule="evenodd" d="M16.0025 25.1024C16.1429 24.4019 16.1899 23.2818 16.237 21.7415H16.9851C17.0322 22.7684 17.0792 23.4219 17.1725 23.6083C17.2196 23.7953 17.4533 23.9816 17.734 24.1687C18.0611 24.4019 18.4822 24.589 19.0437 24.776C19.5582 24.9161 20.0726 25.0093 20.5871 25.0093C21.336 25.0093 21.9908 24.8222 22.5986 24.4958C23.2064 24.1694 23.6746 23.7021 23.9546 23.1887C24.2313 22.6379 24.3754 22.0304 24.3757 21.4143C24.3748 20.9836 24.2956 20.5567 24.142 20.1542C24.0016 19.8277 23.8149 19.5475 23.5335 19.3143C23.1992 19.1186 22.8361 18.9768 22.4575 18.894C21.914 18.8023 21.3683 18.7242 20.8208 18.66C20.0256 18.5668 19.3237 18.4267 18.7622 18.3336C18.0141 18.0996 17.4526 17.8194 17.1255 17.493C16.7514 17.2128 16.4707 16.7932 16.237 16.279C16.0025 15.7656 15.9092 15.2521 15.9092 14.6448C15.9092 13.8042 16.1436 13.0112 16.564 12.2638C17.0467 11.4891 17.746 10.8724 18.5756 10.4894C19.4178 10.0691 20.3997 9.88281 21.4286 9.88281C22.0364 9.88281 22.6912 9.92903 23.4401 10.1161C24.1413 10.2562 24.8431 10.5364 25.4517 10.8159C25.3698 11.2486 25.3073 11.6847 25.2643 12.123C25.2179 12.4963 25.2179 13.1037 25.1709 13.8504H24.4227C24.4227 12.7296 24.3757 12.123 24.3294 12.0298C24.1397 11.7399 23.8828 11.4999 23.5805 11.33C22.8323 10.9097 22.0841 10.6765 21.2419 10.6765C20.213 10.6765 19.3715 11.0029 18.7166 11.6102C18.1081 12.2638 17.7811 13.1044 17.7811 14.0844C17.7811 14.6917 17.9214 15.2052 18.1551 15.5316C18.3418 15.858 18.763 16.1382 19.3244 16.3252C19.7456 16.4653 20.4004 16.6054 21.2889 16.6986C22.1782 16.8387 23.0197 16.9788 23.7216 17.1189C24.4235 17.3059 24.9379 17.5392 25.265 17.8187C25.5464 18.0989 25.8265 18.4722 26.0602 18.9395C26.2476 19.4067 26.3409 19.9195 26.3409 20.5268C26.3409 22.021 25.7794 23.2811 24.5631 24.355C23.3468 25.4289 21.8034 25.9892 19.9322 25.9892C18.572 25.9945 17.2282 25.6912 16.0025 25.1024ZM27.4625 10.8642V10.1637C28.6318 10.2107 29.754 10.2107 30.7837 10.2107C31.8133 10.2107 32.7952 10.2107 33.8241 10.1637V10.8642C32.9819 10.8642 32.4674 10.9104 32.3271 10.9574C32.1404 11.0505 32 11.0975 31.953 11.2376C31.8596 11.3777 31.7656 11.7041 31.7656 12.2645C31.7656 12.4515 31.7185 13.4785 31.6722 15.3922V19.4074C31.6722 20.9478 31.8126 22.0217 31.9993 22.4882C32.1843 22.9887 32.509 23.426 32.9349 23.7484C33.2619 23.9816 33.7301 24.1687 34.2916 24.3088C34.8531 24.4951 35.4609 24.542 36.1627 24.542C36.9579 24.542 37.7061 24.4489 38.3146 24.2618C38.9231 24.0286 39.3906 23.7953 39.7176 23.5151C40.0447 23.2349 40.2791 22.9085 40.4188 22.5351C40.5592 22.2087 40.6995 21.6952 40.7466 21.0879C40.8399 20.4806 40.8869 19.6876 40.8869 18.7539V15.3929C40.8869 14.4122 40.8406 13.4322 40.7936 12.4985C40.7936 11.7987 40.7473 11.3784 40.6532 11.2383C40.5282 11.1237 40.3862 11.0291 40.2321 10.9581C40.0917 10.9112 39.5773 10.8649 38.735 10.8649V10.1637C39.9513 10.2107 40.7929 10.2107 41.3544 10.2107C41.8695 10.2107 42.7581 10.2107 44.0677 10.1637V10.8642C43.2255 10.8642 42.7111 10.9104 42.5244 10.9574C42.3834 11.0269 42.2565 11.1219 42.1503 11.2376C42.0569 11.3777 42.0099 11.7041 42.0099 12.2645C41.9636 12.4515 41.9166 13.4785 41.9166 15.3922V19.0334C41.9166 20.807 41.7762 22.0679 41.5425 22.8146C41.2617 23.5144 40.7943 24.1217 40.1395 24.6821C39.625 25.1017 39.0165 25.3819 38.222 25.6159C37.3711 25.8639 36.4891 25.9896 35.6027 25.9892C34.4804 25.9892 33.4978 25.8491 32.6555 25.5682C31.8603 25.288 31.2055 24.9616 30.7851 24.5413C30.364 24.0748 30.0832 23.6545 29.8958 23.1873C29.7084 22.5806 29.6151 21.5999 29.6151 20.1997V15.3915C29.6151 14.4108 29.5688 13.4308 29.5217 12.4971C29.5217 11.7973 29.4754 11.377 29.3814 11.2369C29.288 11.1437 29.1477 11.0498 29.0073 10.9567C28.8192 10.9104 28.304 10.8642 27.4625 10.8642ZM45.7985 25.6621V25.0555C46.1111 24.9333 46.4091 24.7768 46.6871 24.589C46.7811 24.4951 46.8275 24.4019 46.8745 24.3088C46.9215 24.1217 46.9685 23.7014 46.9685 23.0016C47.0149 22.021 47.0619 21.4143 47.0619 21.2273V15.3915C47.0619 14.4108 47.0156 13.4308 46.9685 12.4971C46.9685 11.7973 46.9215 11.377 46.8282 11.2369C46.7348 11.1437 46.6408 11.0498 46.4541 10.9567C46.2674 10.9097 45.7529 10.8635 44.9107 10.8635V10.1637C46.6878 10.2107 47.8108 10.2107 48.2319 10.2107C48.6993 10.2107 49.7282 10.2107 51.365 10.1637V10.8642C50.4764 10.8642 49.962 10.9104 49.7753 10.9574C49.5879 11.0505 49.4482 11.0975 49.4012 11.2376C49.3078 11.3777 49.2608 11.7041 49.2138 12.2645C49.2138 12.4515 49.2138 13.4785 49.1675 15.3922V22.6745C49.1675 23.4682 49.1675 24.0755 49.2138 24.542C50.056 24.589 50.8512 24.6352 51.6927 24.6352C53.7043 24.6352 55.1543 24.4951 55.9495 24.2149C56.0429 24.0286 56.1369 23.7477 56.2303 23.4682L56.6507 21.6945H57.3996C57.2592 22.7677 57.0718 24.0755 56.9321 25.522C56.6507 25.5682 56.417 25.6159 56.2303 25.6159C55.8562 25.6159 55.2484 25.6614 54.4525 25.6614L47.9504 25.5682C47.2486 25.569 46.5467 25.6166 45.7985 25.6621ZM59.4567 25.6621V25.0555C59.9248 24.8685 60.2049 24.6821 60.346 24.589C60.4393 24.4951 60.4863 24.4019 60.4863 24.3088C60.5797 24.1217 60.6267 23.7014 60.6267 23.0016C60.673 22.021 60.72 21.4143 60.72 21.2273V15.3915C60.72 14.4108 60.673 13.4308 60.6267 12.4971C60.6267 11.7973 60.5804 11.377 60.4863 11.2369C60.393 11.1437 60.2989 11.0498 60.1122 10.9567C59.9256 10.9097 59.4104 10.8635 58.5689 10.8635V10.1637C60.3467 10.2107 61.4689 10.2107 61.8901 10.2107C62.3575 10.2107 63.3864 10.2107 65.0246 10.1637V10.8642C64.1353 10.8642 63.6201 10.9104 63.4342 10.9574C63.246 11.0505 63.1071 11.0975 63.0601 11.2376C62.9667 11.3777 62.9197 11.7041 62.8727 12.2645C62.8727 12.4515 62.8263 13.4785 62.8263 15.3922V22.6745C62.8263 23.4682 62.8263 24.0755 62.8727 24.542C63.7156 24.589 64.5101 24.6352 65.3516 24.6352C67.3624 24.6352 68.8125 24.4951 69.6077 24.2149C69.7025 24.0286 69.7958 23.7477 69.8891 23.4682L70.311 21.6945H71.0584C70.9195 22.7677 70.7314 24.0755 70.591 25.522C70.311 25.5682 70.0773 25.6159 69.8899 25.6159C69.5158 25.6159 68.9072 25.6614 68.1128 25.6614L61.6107 25.5682C60.9067 25.569 60.2049 25.6166 59.4567 25.6621ZM78.7747 24.9623V25.6621C77.2313 25.6166 76.2487 25.569 75.7335 25.569L72.413 25.6621V24.9623C73.2552 24.9161 73.7697 24.8692 73.9564 24.8222C74.097 24.7733 74.2248 24.6936 74.3305 24.589C74.3775 24.4019 74.4708 24.0755 74.4708 23.5151C74.4708 23.375 74.5179 22.3481 74.5642 20.4336V15.3922C74.5642 14.4115 74.5186 13.4315 74.4708 12.4978C74.4708 11.798 74.4238 11.3777 74.3305 11.2376C74.2058 11.1229 74.0639 11.0284 73.9101 10.9574C73.7697 10.9104 73.2545 10.8642 72.4123 10.8642V10.1637C73.769 10.2107 74.8449 10.2107 75.5938 10.2107C76.3413 10.2107 77.3709 10.2107 78.7739 10.1637V10.8642C77.9317 10.8642 77.4172 10.9104 77.2306 10.9574C77.0424 11.0505 76.9491 11.0975 76.8565 11.2376C76.8109 11.3777 76.7161 11.7041 76.7161 12.2645C76.7161 12.4515 76.6705 13.4785 76.6227 15.3922V20.4336C76.6227 21.4136 76.6698 22.3481 76.6698 23.3281C76.7154 23.9816 76.7631 24.4019 76.8101 24.542C76.9088 24.6861 77.0594 24.7865 77.2306 24.8222C77.418 24.8692 77.9331 24.9161 78.7747 24.9623ZM87.0545 25.7567C86.8678 25.1024 86.4004 23.8892 85.6978 22.1148L82.0025 12.9181C81.5821 11.9381 81.3484 11.3777 81.2536 11.2376C81.208 11.1444 81.1147 11.0975 80.9736 11.0505C80.8332 10.9574 80.4114 10.9104 79.7573 10.8642V10.1637C81.114 10.2107 82.0951 10.2107 82.7037 10.2107C83.3122 10.2107 84.2941 10.2107 85.6971 10.1637V10.8642C84.8092 10.8642 84.2941 10.9104 84.1537 10.9104C84.0133 10.9574 83.92 10.9574 83.8737 11.0505C83.824 11.102 83.7909 11.1671 83.7789 11.2376C83.7789 11.3315 83.8259 11.5178 83.967 11.8449C84.196 12.65 84.4611 13.4445 84.7615 14.2259L88.1768 22.816L91.0298 15.7193C91.4502 14.6924 91.8243 13.5716 92.1991 12.3584C92.3872 11.8449 92.4328 11.5178 92.4328 11.3784C92.4328 11.2383 92.3395 11.0982 92.1528 11.0513C92.0124 11.005 91.4502 10.9112 90.469 10.8649V10.1637C91.5906 10.2107 92.3865 10.2107 92.948 10.2107C93.5095 10.2107 94.3047 10.2107 95.2873 10.1637V10.8642C94.7721 10.8642 94.445 10.9104 94.3047 10.9574C94.2113 11.0036 94.1166 11.0975 94.0232 11.2838C93.9299 11.377 93.6962 11.9843 93.181 13.0582L89.8128 21.4143L88.9705 23.562C88.7838 23.9816 88.6435 24.3557 88.5031 24.6828C88.4098 24.963 88.3164 25.3364 88.176 25.7567H87.0545ZM98.327 12.9643L101.041 19.5468H95.5217L98.327 12.9643ZM92.7613 25.569C93.4154 25.569 94.3047 25.6159 95.5673 25.6621V24.9623C94.8662 24.9161 94.398 24.9161 94.1173 24.8222C93.9769 24.8222 93.8372 24.7291 93.7432 24.6359C93.685 24.5716 93.6519 24.4886 93.6498 24.4019C93.6498 24.1687 93.7902 23.7953 93.9769 23.2818L95.1476 20.4806H101.462L102.818 23.8422C102.912 24.0762 102.959 24.3095 102.959 24.4496C102.957 24.5365 102.923 24.6197 102.864 24.6835C102.818 24.7767 102.677 24.8229 102.491 24.8699C102.351 24.9168 101.836 24.9168 101.041 24.963V25.6628L104.548 25.5697C104.97 25.5697 105.765 25.6166 106.888 25.6628V24.963C106.327 24.9168 105.953 24.8699 105.812 24.8229C105.624 24.7298 105.485 24.5427 105.344 24.3095C105.111 23.8422 104.595 22.7222 103.846 20.9478L99.2163 10.0236H98.4674C97.5325 12.3577 96.877 13.8518 96.597 14.5523L93.8372 20.6683C93.0413 22.4889 92.5739 23.4689 92.4328 23.7491C92.1991 24.2163 92.0587 24.5427 91.9191 24.6366C91.7787 24.7298 91.6839 24.8229 91.545 24.8699C91.4046 24.9168 91.0298 24.9168 90.469 24.963V25.6628C91.3113 25.6166 92.0587 25.569 92.7613 25.569ZM108.009 25.6621V24.9623C108.805 24.9161 109.273 24.8692 109.554 24.7753C109.647 24.7291 109.693 24.6352 109.741 24.542C109.834 24.4019 109.881 24.0286 109.929 23.4219C109.974 22.4413 109.974 21.6476 109.974 20.9478V12.0775C109.974 11.8442 109.974 11.7041 109.929 11.6109C109.882 11.4708 109.741 11.3307 109.555 11.1437C109.414 11.0036 109.273 10.9574 109.087 10.9104C108.899 10.8642 108.525 10.8642 107.964 10.8642V10.1637C109.226 10.2107 110.023 10.2107 110.35 10.2107C110.865 10.2107 111.426 10.2107 111.987 10.1637C112.595 10.9574 113.016 11.564 113.296 11.9381L115.542 14.6924L118.769 18.6607C119.845 19.9209 120.687 20.9485 121.295 21.6483C121.716 22.1155 122.044 22.4889 122.324 22.7691V14.8325C122.324 14.1327 122.278 13.2921 122.23 12.3584C122.23 11.751 122.183 11.3784 122.09 11.2376C122.037 11.138 121.956 11.0566 121.856 11.0043C121.622 10.9112 121.107 10.8642 120.36 10.8642V10.1637C121.202 10.2107 122.09 10.2107 122.979 10.2107C123.774 10.2107 124.57 10.2107 125.224 10.1637V10.8642C124.475 10.8642 123.962 10.9104 123.726 11.0043C123.633 11.0505 123.587 11.1444 123.539 11.2376C123.446 11.3777 123.399 11.751 123.353 12.4053C123.305 13.3384 123.305 14.179 123.305 14.8794V20.1079C123.305 21.1818 123.305 23.1425 123.353 26.0362L122.23 25.7098L121.948 25.6628C121.948 25.6173 121.902 25.6173 121.855 25.5697L121.434 25.1501C120.826 24.4496 120.405 23.9361 120.125 23.5628L118.72 21.7884L110.956 12.4046V20.9009C110.956 21.6007 111.003 22.4413 111.05 23.4219C111.05 24.0293 111.097 24.4019 111.19 24.542C111.243 24.6413 111.324 24.7226 111.424 24.7753C111.657 24.8685 112.173 24.9154 112.921 24.9623V25.6621C112.266 25.6166 111.565 25.569 110.769 25.569C109.928 25.569 109.039 25.6166 108.009 25.6621ZM21.1942 35.841C21.1942 38.1743 20.399 39.0149 18.5285 39.0149C16.6574 39.0149 15.8622 38.222 15.8622 35.7941V30.5656H16.5633V35.841C16.5633 37.6146 16.9844 38.5008 18.5285 38.5008C20.1182 38.5008 20.493 37.6146 20.493 35.841V30.5656H21.1942V35.841ZM34.2452 38.1743C34.1982 36.8672 34.1982 34.2992 34.1982 30.5656H34.9001V38.8748H33.8712C31.7193 35.0943 30.3162 32.5732 29.6144 31.2661H29.5681C29.6144 32.5732 29.6144 35.1398 29.6144 38.8748H28.9125V30.5656H29.9414C32.0933 34.3461 33.5434 36.8672 34.2452 38.1743ZM42.664 30.5656H43.3659V38.8741H42.664V30.5656ZM53.2824 38.3144C53.6222 37.0797 53.9809 35.8501 54.3584 34.6263L55.5747 30.5649H56.2766L53.7043 38.8741H52.862L50.289 30.5649H50.9909L52.2072 34.6719C52.5904 35.8786 52.9489 37.0931 53.2824 38.3144ZM66.801 34.253V34.8127H63.8531V38.3144H67.7358V38.8741H63.152V30.5656H67.5954V31.1253H63.8531V34.253H66.801ZM75.5952 34.7657V31.1253H76.8572C78.5409 31.1253 79.0561 31.7781 79.0561 32.9466C79.0561 34.1136 78.355 34.7664 77.1842 34.7664L75.5952 34.7657ZM77.6994 35.2337C78.8224 35.0936 79.758 34.3931 79.758 32.8989C79.758 31.2184 78.635 30.5656 76.9049 30.5656H74.8927V38.8748H75.5952V35.3275H77.0439L79.2898 38.8748H80.1777L77.6994 35.2337ZM90.375 31.9652C90.1883 31.4986 89.7679 30.9375 88.8316 30.9375C88.3178 30.9375 87.8504 31.1253 87.5697 31.4041C87.3359 31.5918 87.1956 31.9182 87.1956 32.3385C87.1956 32.805 87.3822 33.1791 87.663 33.4124C87.9901 33.6919 88.3185 33.8789 89.2064 34.2985C90.0023 34.7195 90.4227 34.9058 90.7498 35.233C91.0312 35.5594 91.312 36.0259 91.312 36.6788C91.312 37.2399 91.0783 37.7995 90.7035 38.2206C90.2816 38.5925 89.6738 39.0135 88.786 39.0135C87.3359 39.0135 86.6341 38.3592 86.3533 37.5186L87.0075 37.4255C87.2426 37.9396 87.8034 38.4993 88.786 38.4993C89.4401 38.4993 89.8619 38.2198 90.189 37.892C90.4227 37.6125 90.6094 37.1922 90.6094 36.7726C90.6094 36.2115 90.3757 35.8851 90.142 35.6042C89.8619 35.4179 89.5349 35.2322 88.6456 34.7636C87.663 34.2971 87.3823 34.1107 87.1022 33.8305C86.7737 33.5041 86.4937 33.0376 86.4937 32.3833C86.4937 31.8706 86.6804 31.4026 87.0545 31.0307C87.4763 30.6573 88.0371 30.4234 88.8793 30.4234C90.189 30.4234 90.7968 31.0762 91.0312 31.8706L90.375 31.9652ZM98.4204 30.5656H99.1229V38.8741H98.4204V30.5656ZM111.565 31.1253H109.132V38.8741H108.431V31.1253H106.045V30.5656H111.565V31.1253ZM120.827 35.4669V38.8741H120.125V35.4669L117.646 30.5649H118.442L119.47 32.7126C119.797 33.4586 120.125 34.1598 120.498 34.9058C120.872 34.1598 121.201 33.4124 121.528 32.7126L122.556 30.5649H123.305L120.827 35.4669Z" fill="#9B99AB"/>
<path d="M16.0029 28.0898H123.353" stroke="#9B99AB" stroke-width="8.43035" stroke-miterlimit="2.613"/>
<path fill-rule="evenodd" clip-rule="evenodd" d="M11.9799 10.5847C10.5298 7.41003 11.4654 14.2265 10.4365 16.3735C9.64129 18.101 9.2672 18.7076 7.77013 20.4819C6.78824 21.5558 5.10377 24.0769 4.40191 24.4502C4.16819 22.0223 5.71158 19.5019 6.88087 17.2611C7.30127 16.3273 9.73392 12.2196 10.2484 8.6247C10.9966 3.11603 7.20793 -1.36573 7.44236 0.268529C7.86276 2.46247 8.28388 4.14295 7.95682 5.96353C7.02124 11.426 5.89826 12.0326 3.98079 15.7207C3.13856 17.2148 -0.228958 22.1631 0.00475857 26.738C0.332532 33.1342 4.26154 36.7761 5.47786 37.7099C6.22675 38.1764 5.10377 34.4414 5.38451 32.2944C5.89898 29.2591 7.02195 27.1121 8.70571 25.1052C10.8576 22.5379 12.4473 20.4371 12.8221 16.9354C13.1029 14.4122 11.9799 10.5377 11.9799 10.5847Z" fill="#9B99AB"/>
<path fill-rule="evenodd" clip-rule="evenodd" d="M8.61239 38.8748C8.79979 35.9804 9.22091 34.0204 10.3432 32.5255C11.045 31.4993 12.2607 29.2115 12.074 26.9237C12.0276 25.7098 10.5306 21.8346 10.5769 24.5427C10.4836 25.7098 10.5769 26.2694 10.2498 27.3433C9.26794 30.1922 6.4612 31.4517 6.36715 34.7664C6.2738 36.7748 8.47202 40.2296 8.61239 38.8748ZM16.3771 47.652V47.6051C16.7982 47.652 17.1723 47.652 17.5934 47.652C17.8741 47.652 18.2952 47.652 18.6693 47.6051L18.7164 47.652L18.6693 47.8853L18.623 47.9322C18.4356 47.9322 18.0615 47.9322 18.0145 48.0709C17.9211 48.2586 17.6874 49.378 17.5 50.592C18.576 49.6589 20.0253 48.1178 20.0723 47.9322C20.0723 47.8376 20.0723 47.7445 20.1187 47.6513V47.6044C20.3061 47.6513 20.4927 47.6513 20.7272 47.6513C20.9146 47.6513 21.1483 47.6513 21.3357 47.6044L21.382 47.6513L21.3357 47.8846L21.2887 47.9315C20.9616 47.9315 20.8212 47.9315 20.3531 48.3511L18.2952 50.4056L20.2127 52.8335C20.5868 53.3001 20.7272 53.3463 21.102 53.3463L21.1483 53.3932L21.102 53.6265L21.0549 53.672C20.8212 53.6265 20.6338 53.6265 20.4001 53.6265C20.1664 53.6265 19.979 53.6265 19.7453 53.672C19.4182 53.1593 18.3416 51.7597 17.5 50.7313C17.2663 51.8521 17.1259 52.926 17.1259 53.1123C17.1259 53.2524 17.2193 53.3456 17.8278 53.3456L17.8741 53.3925L17.8278 53.6258L17.7808 53.6713C17.4067 53.6258 16.9856 53.6258 16.6115 53.6258H15.4422L15.4892 53.3925L15.5355 53.3456C15.7229 53.3456 16.097 53.3456 16.1904 53.2069C16.3307 52.8791 17.0326 48.4912 17.0326 48.1648C17.0326 48.0247 16.9856 47.9315 16.3307 47.9315V47.8846L16.3771 47.652ZM24.0013 50.3132C24.0013 51.013 23.1121 51.5726 22.3176 51.6658C22.5983 50.6851 22.785 49.8922 23.5339 49.8922C23.8147 49.8929 24.0013 50.033 24.0013 50.3132ZM21.4754 52.601C21.4754 53.3939 22.0368 53.768 22.5513 53.768C23.2525 53.768 24.0947 53.1607 24.3284 52.9274L24.3747 52.8805L24.3284 52.6942H24.2821C23.908 53.0206 23.3928 53.3015 22.9724 53.3015C22.5983 53.3015 22.2242 53.0206 22.2242 52.367C22.2242 52.1337 22.2706 52.0406 22.2706 51.9005C24.1887 51.5286 24.7965 50.7811 24.7965 50.1738C24.7965 49.8474 24.5628 49.5195 23.9543 49.5195C23.2061 49.5195 22.3176 50.1269 22.0368 50.5471C21.7091 51.0137 21.4754 52.0399 21.4754 52.601ZM25.0303 50.4063L25.0773 50.3594C25.264 50.2193 26.1062 49.5665 26.4803 49.5665C26.714 49.5665 26.8074 49.6596 26.8074 49.8474C26.8074 50.0806 26.714 50.3139 26.4333 51.3408L26.4796 51.3877C27.0411 50.3601 28.1633 49.5665 28.7248 49.5665C29.0519 49.5665 29.146 49.7528 29.146 49.9398C29.146 50.1261 29.0056 50.7328 28.8189 51.387C28.6785 52.0868 28.4448 52.7397 28.4448 52.9274C28.4448 53.0206 28.5382 53.1137 28.5852 53.1137C28.6785 53.1137 29.0063 52.9274 29.2863 52.6942H29.3334L29.4267 52.8343V52.8798C28.9593 53.2531 28.3037 53.7204 27.9767 53.7204C27.79 53.7204 27.6026 53.5803 27.6026 53.3008C27.6026 52.7866 28.2574 50.966 28.2574 50.4063C28.2574 50.2662 28.1641 50.2186 28.07 50.2186C27.6959 50.2186 26.8537 51.013 26.5266 51.7135C26.2922 52.18 26.1525 52.9274 26.0585 53.5803C25.7777 53.6272 25.497 53.6272 25.2633 53.7204L25.217 53.6734C25.4977 52.8342 25.9188 50.8259 25.9188 50.3594C25.9188 50.2662 25.8718 50.2193 25.7784 50.2193C25.6844 50.2193 25.4044 50.3594 25.1699 50.5471H25.1229L25.0303 50.4063ZM31.9534 52.7397V52.7866C31.2052 53.4395 30.6908 53.7197 30.363 53.7197C30.0352 53.7197 30.0359 53.4864 30.0359 53.3932C30.0359 53.1123 30.457 51.2455 30.6444 50.358H29.8956V50.1717H29.9419C30.1763 50.0785 30.5504 49.9384 30.7371 49.7983L30.9708 48.3511C31.2986 48.211 31.486 48.1178 31.719 48.0246L31.813 48.1178C31.6727 48.4442 31.5786 49.0509 31.3919 49.8915C31.8601 49.8915 32.2341 49.8459 32.3745 49.7983L32.4208 49.8915C32.3745 49.9846 32.3275 50.2179 32.2805 50.3125V50.358C31.9997 50.358 31.6256 50.3125 31.2986 50.3125C30.8775 52.5526 30.8304 52.7866 30.8304 52.9267C30.8304 53.0668 30.8775 53.113 30.9708 53.113C31.1112 53.113 31.3919 52.9729 31.813 52.6465H31.8593L31.9534 52.7397ZM32.3745 50.4063V50.3594C33.2631 49.7065 33.6372 49.5188 33.8716 49.5188C34.059 49.5188 34.1987 49.6589 34.1987 49.8467C34.1987 50.3132 33.5438 52.2731 33.5438 52.8343C33.5438 53.0206 33.5908 53.0675 33.6842 53.0675C34.0112 53.0675 35.0409 51.8991 35.2283 51.3394C35.462 50.6851 35.5553 50.2186 35.6957 49.7058C35.8361 49.7058 36.3035 49.6113 36.3976 49.5181L36.4909 49.6113C36.2565 50.1254 35.742 52.6003 35.742 52.8798C35.742 53.0199 35.7891 53.0675 35.8824 53.0675C35.9757 53.0675 36.1632 53.0206 36.5372 52.6942H36.5843L36.6776 52.8343V52.8798C36.1632 53.3463 35.5083 53.7204 35.1805 53.7204C34.9931 53.7204 34.8998 53.6272 34.8998 53.3939C34.8998 53.2076 34.9461 52.8343 35.2269 51.8991L35.1798 51.8536C34.7587 52.601 33.7298 53.7204 33.075 53.7204C32.8412 53.7204 32.7009 53.5803 32.7009 53.3008C32.7009 52.7866 33.2624 51.013 33.2624 50.4063C33.2624 50.2662 33.216 50.2186 33.122 50.2186C33.0279 50.2186 32.8412 50.3132 32.4672 50.592V50.5464L32.3745 50.4063ZM40.0922 52.8343L40.0458 52.9274C39.2977 53.4871 38.7832 53.768 38.2687 53.768C37.5198 53.768 37.1458 53.1607 37.1458 52.414C37.1458 51.9474 37.3324 50.9667 37.8006 50.3594C37.9873 50.2193 38.0343 50.1731 38.5025 49.8929C39.0639 49.5665 39.2977 49.4733 39.5784 49.4733C39.9055 49.4733 40.1869 49.612 40.3736 49.7066V49.7521C40.3266 50.0799 40.2332 50.4063 40.2332 50.7797L40.1869 50.8252H39.9525V50.7797V50.1254C39.9055 50.0799 39.5314 49.9391 39.2043 49.9391C38.5495 49.9391 38.3621 50.3587 38.2224 50.7797C38.035 51.387 37.9417 51.9467 37.9417 52.2731C37.9417 52.601 37.988 53.3008 38.6428 53.3008C38.9243 53.3008 39.2513 53.2076 39.9995 52.6465H40.0458L40.0922 52.8343ZM44.3952 52.9274V52.9729C43.9741 53.3463 43.3663 53.7204 43.226 53.7204C42.9922 53.7204 42.8989 53.534 42.197 51.5271C41.7759 51.9467 41.5885 52.2269 41.4018 53.534C41.1681 53.5795 40.8403 53.6272 40.6536 53.7204L40.5603 53.6734C40.8874 52.6472 41.7296 48.7714 41.7296 48.2117C41.7296 47.9322 41.6833 47.9322 40.9807 47.9322V47.6975H41.0277C41.4489 47.6975 42.1037 47.5112 42.6181 47.3256L42.7115 47.4187C42.5248 47.9329 42.103 50.2193 41.7759 51.6203V51.6658C43.0385 50.0799 43.7874 49.5181 44.3482 49.5181C44.4416 49.5181 44.5356 49.5181 44.6297 49.565C44.5826 49.7514 44.4893 49.9384 44.4893 50.1724C44.396 50.1724 44.3019 50.1254 44.1622 50.1254C43.6478 50.1254 43.32 50.3132 42.7592 50.8729C43.4141 52.8798 43.5074 53.0675 43.6941 53.0675C43.8815 53.0675 44.0219 52.9729 44.2556 52.8343H44.3019L44.3952 52.9274ZM44.5826 50.4063V50.3594C45.0971 49.9398 45.7049 49.5188 45.9857 49.5188C46.1731 49.5188 46.3597 49.612 46.3597 50.033C46.3597 50.5927 46.1253 51.8066 46.1253 52.6942C46.1253 52.8805 46.2187 52.9736 46.3127 52.9736C46.5935 52.9736 47.1079 52.3663 47.4357 51.7611C47.8098 51.0599 48.0442 49.8474 48.0905 49.7066C48.5116 49.612 48.605 49.612 48.8857 49.5188L48.9321 49.612C48.3706 51.0592 47.7628 54.0013 47.1079 54.8874C46.8272 55.2607 46.032 56.0558 45.3771 56.0558C45.2724 56.0566 45.1686 56.0365 45.0718 55.9969C44.9749 55.9572 44.8869 55.8987 44.8129 55.8248C44.7389 55.7509 44.6804 55.663 44.6407 55.5663C44.6011 55.4696 44.5811 55.3659 44.5819 55.2615C44.7223 55.1683 44.909 55.0751 45.0494 54.935L45.1427 54.982V55.0751C45.1427 55.3084 45.2831 55.6348 45.6572 55.6348C46.1246 55.6348 46.5464 55.0275 46.7802 54.2808L47.388 52.3208H47.3409C46.5927 53.3947 46.1716 53.7211 45.7975 53.7211C45.5168 53.7211 45.3764 53.581 45.3764 53.1614C45.3764 52.3208 45.5638 51.4809 45.5638 50.5934C45.5638 50.267 45.5175 50.1738 45.3301 50.1738C45.2368 50.1738 44.956 50.3601 44.7216 50.5471L44.5826 50.4063ZM50.2424 48.7714C50.1961 48.3048 50.1961 48.1185 50.1961 47.9784C50.1961 47.652 50.3365 47.5119 50.6172 47.5119C50.898 47.5119 51.0383 47.652 51.0383 47.9784C51.0383 48.1185 50.9913 48.3048 50.9443 48.7714L50.8509 49.612C50.8509 49.8929 50.7576 49.9398 50.6172 49.9398C50.4769 49.9398 50.3835 49.8929 50.3365 49.612L50.2424 48.7714ZM54.1251 50.7804H54.0781C54.0781 50.5927 54.1251 50.3139 54.1251 50.2662C54.1251 50.1261 53.6107 49.9853 53.2829 49.9853C52.628 49.9853 52.4406 50.3587 52.4406 50.5927C52.4406 51.6665 54.4522 50.7328 54.4522 52.133C54.4522 52.6472 54.2648 52.9736 53.704 53.347C53.2829 53.6279 53.0492 53.7204 52.581 53.7204C52.2405 53.7157 51.9052 53.636 51.5991 53.4871V53.4402C51.6925 53.1137 51.7395 52.6942 51.7865 52.3663L51.8328 52.3208H52.0202V52.9736C52.0666 53.0682 52.5347 53.3015 52.9558 53.3015C53.4703 53.3015 53.8444 53.0682 53.8444 52.5071C53.8444 52.0406 53.5173 51.9474 52.9095 51.8998C52.301 51.8066 51.8336 51.5734 51.8336 50.9667C51.8336 50.1261 53.0028 49.5195 53.6577 49.5195C53.9384 49.5195 54.2192 49.5665 54.4999 49.7073L54.5469 49.7528C54.4066 50.1738 54.4066 50.267 54.3595 50.7804H54.1251ZM62.3102 49.1454V49.0999C62.3102 48.9122 62.3102 48.4457 62.2639 48.4001C61.8284 48.1295 61.3267 47.9839 60.8138 47.9791C59.036 47.9791 58.4752 49.5195 58.4752 51.0599C58.4752 52.788 59.5512 53.2083 60.3927 53.2083C61.2813 53.2083 61.8898 52.9274 62.4042 52.601L62.4506 52.6465C62.4506 52.7397 62.4042 52.8798 62.4042 53.0199C61.7957 53.4395 61.1416 53.7673 60.206 53.7673C58.4282 53.7673 57.5397 52.7866 57.5397 51.0585C57.5397 48.632 59.5512 47.5112 61.1416 47.5112C61.7964 47.5112 62.3109 47.6513 62.8254 47.8376V47.8846C62.685 48.3041 62.5916 48.7251 62.5916 49.0985L62.5446 49.144H62.3102V49.1454ZM63.808 52.9274C63.808 51.9467 64.2284 50.3594 64.4621 50.1731C64.5569 50.0799 64.7906 49.9853 65.0706 49.9853C65.3521 49.9853 65.5858 50.0323 65.8195 50.1731C65.6328 51.8998 64.1357 53.1137 63.902 53.1137C63.808 53.1137 63.808 53.0675 63.808 52.9274ZM66.2862 49.7521C65.9121 49.5657 65.6321 49.5188 65.444 49.5188C64.7428 49.5188 63.9939 50.1731 63.8536 50.3132C63.5265 50.7328 63.012 51.9467 63.012 53.0675C63.012 53.5803 63.1061 53.7204 63.3861 53.7204C64.0417 53.7204 65.1647 52.4132 65.538 51.7604C65.258 52.601 65.1176 53.2076 65.1176 53.4395C65.1176 53.6272 65.211 53.7204 65.4447 53.7204C65.7261 53.7204 66.1936 53.4871 66.8947 52.8798V52.8343L66.8014 52.6942C66.5199 52.9736 66.2406 53.1137 66.1002 53.1137C66.0055 53.1137 65.9599 53.0682 65.9599 52.9736C65.9599 52.6942 66.5684 49.986 66.7544 49.612L66.5677 49.5188L66.2862 49.7521ZM67.2688 50.4063V50.3594C67.5503 50.0799 68.3918 49.5188 68.7666 49.5188C68.9533 49.5188 69.0466 49.6589 69.0466 49.8467C69.0466 50.033 68.8599 50.7797 68.7196 51.2925V51.3394C69.0937 50.5464 69.7955 49.5181 70.4033 49.5181C70.4967 49.5181 70.5437 49.565 70.59 49.565V49.6105C70.5014 49.9301 70.4547 50.2597 70.4511 50.5912H70.3107C70.2159 50.4511 70.1226 50.4049 69.9822 50.4049C69.3737 50.4049 68.4859 51.712 68.2985 53.5788C67.878 53.6258 67.7847 53.6258 67.504 53.7189L67.4106 53.672C67.6443 53.2524 68.1595 50.8245 68.1595 50.358C68.1595 50.2648 68.1595 50.2179 68.0191 50.2179C67.8788 50.2179 67.6907 50.3125 67.3636 50.5912L67.2688 50.4063ZM73.1623 50.3132C73.1623 51.013 72.2731 51.5726 71.4786 51.6658C71.76 50.6851 71.946 49.8922 72.6949 49.8922C72.9749 49.8929 73.1623 50.033 73.1623 50.3132ZM70.637 52.601C70.637 53.3939 71.1978 53.768 71.713 53.768C72.4141 53.768 73.2564 53.1607 73.4901 52.9274L73.5371 52.8805L73.4901 52.6942H73.4445C73.0704 53.0206 72.5552 53.3015 72.1334 53.3015C71.7607 53.3015 71.3859 53.0206 71.3859 52.367C71.3859 52.1337 71.4315 52.0406 71.4315 51.9005C73.349 51.5286 73.9575 50.7811 73.9575 50.1738C73.9575 49.8474 73.7238 49.5195 73.163 49.5195C72.3671 49.5195 71.4793 50.1269 71.1978 50.5471C70.8708 51.0137 70.637 52.0399 70.637 52.601ZM76.8576 50.3132C76.8576 51.013 75.9683 51.5726 75.1739 51.6658C75.4553 50.6851 75.6413 49.8922 76.3902 49.8922C76.6709 49.8929 76.8576 50.033 76.8576 50.3132ZM74.3316 52.601C74.3316 53.3939 74.8924 53.768 75.4076 53.768C76.1087 53.768 76.951 53.1607 77.1847 52.9274L77.2317 52.8805L77.1384 52.6942C76.7643 53.0206 76.2491 53.3015 75.8287 53.3015C75.4546 53.3015 75.0798 53.0206 75.0798 52.367C75.0798 52.1337 75.0798 52.0406 75.1268 51.9005C76.9973 51.5286 77.6058 50.7811 77.6058 50.1738C77.6058 49.8474 77.4177 49.5195 76.8113 49.5195C76.0624 49.5195 75.1731 50.1269 74.8924 50.5471C74.5653 51.0137 74.3316 52.0399 74.3316 52.601ZM77.8402 50.4063V50.3594C78.1673 50.0799 78.9618 49.5188 79.3366 49.5188C79.5247 49.5188 79.618 49.6589 79.618 49.8467C79.618 50.033 79.4313 50.7797 79.291 51.2925V51.3394C79.6651 50.5464 80.3669 49.5181 80.9747 49.5181C81.0681 49.5181 81.1614 49.565 81.1614 49.565V49.6105C81.1158 49.9384 81.021 50.3118 81.021 50.5912H80.8821C80.7873 50.4511 80.694 50.4049 80.5536 50.4049C79.9451 50.4049 79.0573 51.712 78.8699 53.5788C78.4494 53.6258 78.3561 53.6258 78.0754 53.7189L77.982 53.672C78.262 53.2524 78.7295 50.8245 78.7295 50.358C78.7295 50.2648 78.7295 50.2179 78.5905 50.2179C78.4958 50.2179 78.262 50.3125 77.982 50.5912H77.935L77.8402 50.4063ZM87.6157 47.652L87.6627 47.6051C88.0368 47.6051 88.4116 47.652 88.7857 47.652C89.1598 47.652 89.5346 47.6051 89.9072 47.6051L89.9543 47.652L89.9072 47.8853L89.8616 47.9322C89.2531 47.9322 89.2531 47.9322 89.1128 48.7714C89.0657 49.0992 88.4116 52.7866 88.4116 53.0675C88.4116 53.2538 88.552 53.3008 89.1605 53.347V53.3939L89.1135 53.6272V53.6727C88.832 53.6272 88.5527 53.6272 88.2712 53.6272H87.4297C87.5231 53.2538 87.6164 52.8798 87.6634 52.5533C86.8689 53.4395 86.1671 53.7673 85.4189 53.7673C84.5296 53.7673 83.8755 53.3463 83.8755 52.4132C83.8755 51.9937 84.0145 51.3394 84.1092 50.6396L84.2959 49.7066C84.3429 49.24 84.484 48.4457 84.484 48.2117C84.484 47.9322 84.437 47.9322 83.8285 47.9322L83.7815 47.8853L83.8285 47.652L83.8755 47.6051C84.0145 47.6051 84.5296 47.652 84.8567 47.652C85.0904 47.652 85.4189 47.652 85.5122 47.6051C85.1382 49.4264 84.7178 51.5734 84.7178 52.2731C84.7178 53.0675 85.4189 53.2076 85.746 53.2076C86.5405 53.2076 87.196 52.6465 87.7568 52.0392C87.8972 51.1061 88.3653 48.3987 88.3653 48.211C88.3653 47.9315 88.1786 47.9315 87.6164 47.9315L87.5708 47.8846L87.6157 47.652ZM89.8616 50.4063V50.3594C90.0483 50.2193 90.8899 49.5665 91.2647 49.5665C91.4984 49.5665 91.5917 49.6596 91.5917 49.8474C91.5917 50.0806 91.4984 50.3139 91.2647 51.3408V51.3877C91.8254 50.3601 92.9484 49.5665 93.5569 49.5665C93.8384 49.5665 93.931 49.7528 93.931 49.9398C93.931 50.1261 93.7906 50.7328 93.604 51.387C93.4636 52.0868 93.2755 52.7397 93.2755 52.9274C93.2755 53.0206 93.3225 53.1137 93.4159 53.1137C93.5092 53.1137 93.7899 52.9274 94.0714 52.6942H94.117L94.2118 52.8343V52.8798C93.7429 53.2531 93.1344 53.7204 92.7617 53.7204C92.5736 53.7204 92.4332 53.5803 92.4332 53.3008C92.4332 52.7866 93.0418 50.966 93.0888 50.4063C93.0888 50.2662 92.9955 50.2186 92.8551 50.2186C92.481 50.2186 91.6388 51.013 91.3117 51.7135C91.1236 52.18 90.9376 52.9274 90.8443 53.5803C90.5628 53.6272 90.3291 53.6272 90.0483 53.7204L90.0027 53.6734C90.2828 52.8342 90.7039 50.8259 90.7039 50.3594C90.7039 50.2662 90.6569 50.2193 90.6091 50.2193C90.4702 50.2193 90.1887 50.3594 89.955 50.5471H89.908L89.8616 50.4063ZM94.6322 50.4063V50.3594C95.0996 49.986 95.8015 49.5665 96.13 49.5665C96.2689 49.5665 96.457 49.6596 96.457 49.8474C96.457 50.2669 95.8015 52.367 95.8015 52.8812C95.8015 53.0213 95.8485 53.1145 95.9418 53.1145C96.0822 53.1145 96.2689 52.9744 96.643 52.6949L96.7363 52.8812V52.9281C96.0352 53.4409 95.6148 53.7211 95.2877 53.7211C95.0526 53.7211 94.9592 53.581 94.9592 53.3477C94.9592 52.9281 95.5677 50.9667 95.5677 50.407C95.5677 50.2669 95.5222 50.1738 95.4274 50.1738C95.334 50.1738 95.1473 50.3139 94.7262 50.5934L94.6322 50.4063ZM96.457 47.6051C96.6437 47.6051 96.8311 47.7928 96.8311 48.0261C96.8311 48.2593 96.643 48.6789 96.2226 48.6789C96.1732 48.6797 96.1243 48.6706 96.0785 48.6521C96.0328 48.6336 95.9912 48.6061 95.9564 48.5713C95.9215 48.5365 95.8939 48.495 95.8754 48.4493C95.8569 48.4037 95.8477 48.3548 95.8485 48.3056C95.8485 47.9784 96.13 47.6051 96.457 47.6051ZM99.8245 50.0799C100.011 49.8922 100.199 49.7066 100.338 49.5657C100.385 49.5188 100.433 49.5188 100.573 49.5188C100.9 49.5188 101.134 49.7521 101.134 50.3132C101.134 51.8536 99.7298 53.7673 98.6082 53.7673C97.9997 53.7673 97.6256 53.2531 97.6256 52.6003C97.6256 51.6658 98.4678 50.5457 98.8419 50.1724V50.1254C98.6449 50.1866 98.4398 50.218 98.2334 50.2186C98.0453 50.2186 97.952 50.1731 97.8116 50.1731C97.6726 50.1731 97.5779 50.3132 97.3912 50.6858L97.3441 50.7328H97.2052L97.1582 50.6858C97.3919 50.1261 97.4396 49.9398 97.5323 49.6596C97.7189 49.6127 97.8593 49.6127 97.9527 49.6127C98.093 49.6127 98.5149 49.6596 98.8419 49.6596C99.0286 49.6596 99.216 49.6127 99.3571 49.6127L99.4504 49.7073C98.7016 50.5479 98.3745 51.7142 98.3745 52.367C98.3745 53.0213 98.7016 53.2545 99.0286 53.2545C100.058 53.2545 100.479 51.4809 100.479 50.6865C100.479 50.3601 100.338 50.1738 100.199 50.1738C100.104 50.1738 100.011 50.1738 99.9172 50.2193L99.8245 50.0799ZM104.221 50.3132C104.221 51.013 103.286 51.5726 102.491 51.6658C102.771 50.6851 103.005 49.8922 103.753 49.8922C104.035 49.8929 104.221 50.033 104.221 50.3132ZM101.648 52.601C101.648 53.3939 102.256 53.768 102.771 53.768C103.426 53.768 104.269 53.1607 104.548 52.9274V52.8805L104.502 52.6942H104.455C104.081 53.0206 103.613 53.3015 103.146 53.3015C102.772 53.3015 102.397 53.0206 102.397 52.367C102.397 52.1337 102.444 52.0406 102.492 51.9005C104.362 51.5286 104.971 50.7811 104.971 50.1738C104.971 49.8474 104.737 49.5195 104.176 49.5195C103.427 49.5195 102.492 50.1269 102.211 50.5471C101.929 51.0137 101.648 52.0399 101.648 52.601ZM105.204 50.4063V50.3594C105.485 50.0799 106.327 49.5188 106.654 49.5188C106.887 49.5188 106.981 49.6589 106.981 49.8467C106.981 50.033 106.747 50.7797 106.654 51.2925V51.3394C106.981 50.5464 107.73 49.5181 108.337 49.5181C108.431 49.5181 108.478 49.565 108.524 49.565V49.6105C108.435 49.93 108.388 50.2597 108.384 50.5912H108.197C108.15 50.4511 108.057 50.4049 107.916 50.4049C107.307 50.4049 106.372 51.712 106.232 53.5788C105.811 53.6258 105.718 53.6258 105.437 53.7189L105.344 53.672C105.578 53.2524 106.091 50.8245 106.091 50.358C106.091 50.2648 106.046 50.2179 105.952 50.2179C105.812 50.2179 105.624 50.3125 105.297 50.5912H105.251L105.204 50.4063ZM110.864 50.7804V50.2662C110.864 50.1261 110.397 49.9853 110.068 49.9853C109.367 49.9853 109.226 50.3587 109.226 50.5927C109.226 51.6665 111.238 50.7328 111.238 52.133C111.238 52.6472 111.004 52.9736 110.489 53.347C110.067 53.6279 109.788 53.7204 109.366 53.7204C108.946 53.7204 108.572 53.5803 108.384 53.4871L108.338 53.4402C108.431 53.1137 108.525 52.6942 108.572 52.3663V52.3208H108.758L108.806 52.3663V52.9736C108.806 53.0682 109.321 53.3015 109.693 53.3015C110.209 53.3015 110.583 53.0682 110.583 52.5071C110.583 52.0406 110.256 51.9474 109.693 51.8998C109.086 51.8066 108.617 51.5734 108.617 50.9667C108.617 50.1261 109.74 49.5195 110.396 49.5195C110.676 49.5195 110.957 49.5665 111.284 49.7073V49.7528C111.19 50.1738 111.19 50.267 111.097 50.7804H110.864ZM111.799 50.4063V50.3594C112.266 49.986 112.922 49.5665 113.295 49.5665C113.436 49.5665 113.624 49.6596 113.624 49.8474C113.624 50.2669 112.968 52.367 112.968 52.8812C112.968 53.0213 113.015 53.1145 113.109 53.1145C113.202 53.1145 113.436 52.9744 113.764 52.6949H113.81L113.903 52.8812V52.9281C113.202 53.4409 112.782 53.7211 112.453 53.7211C112.219 53.7211 112.08 53.581 112.08 53.3477C112.08 52.9281 112.735 50.9667 112.735 50.407C112.735 50.2669 112.687 50.1738 112.594 50.1738C112.501 50.1738 112.267 50.3139 111.893 50.5934H111.847L111.799 50.4063ZM113.576 47.6051C113.81 47.6051 113.998 47.7928 113.998 48.0261C113.998 48.2593 113.81 48.6789 113.389 48.6789C113.108 48.6789 112.968 48.4926 112.968 48.3056C112.968 47.9784 113.295 47.6051 113.576 47.6051ZM116.477 52.7397V52.7866C115.682 53.4395 115.215 53.7197 114.886 53.7197C114.559 53.7197 114.559 53.4864 114.559 53.3932C114.559 53.1123 114.933 51.2455 115.12 50.358H114.419V50.1717H114.466C114.7 50.0785 115.075 49.9384 115.215 49.7983L115.495 48.3511C115.822 48.211 116.01 48.1178 116.244 48.0246L116.337 48.1178C116.197 48.4442 116.056 49.0509 115.917 49.8915C116.337 49.8915 116.759 49.8459 116.899 49.7983L116.945 49.8915C116.899 49.9846 116.805 50.2179 116.805 50.3125L116.759 50.358C116.525 50.358 116.15 50.3125 115.823 50.3125C115.402 52.5526 115.355 52.7866 115.355 52.9267C115.355 53.0668 115.402 53.113 115.496 53.113C115.636 53.113 115.87 52.9729 116.338 52.6465H116.385L116.477 52.7397Z" fill="#9B99AB"/>
<path fill-rule="evenodd" clip-rule="evenodd" d="M116.757 50.4051V50.3582C117.271 49.9386 117.833 49.5176 118.16 49.5176C118.347 49.5176 118.487 49.6107 118.487 50.0317C118.487 50.5914 118.301 51.8054 118.301 52.6929C118.301 52.8792 118.394 52.9724 118.487 52.9724C118.769 52.9724 119.283 52.3651 119.61 51.7599C119.984 51.0587 120.219 49.8461 120.219 49.7053C120.686 49.6107 120.779 49.6107 121.061 49.5176L121.107 49.6107C120.546 51.058 119.937 54 119.283 54.8861C119.002 55.2595 118.16 56.0546 117.505 56.0546C117.131 56.0546 116.757 55.7267 116.71 55.2602C116.898 55.1671 117.084 55.0739 117.225 54.9338L117.319 54.9807V55.0739C117.319 55.3072 117.459 55.6336 117.834 55.6336C118.301 55.6336 118.722 55.0263 118.955 54.2795L119.564 52.3196H119.518C118.769 53.3934 118.348 53.7198 117.928 53.7198C117.694 53.7198 117.554 53.5797 117.554 53.1602C117.554 52.3196 117.694 51.4797 117.694 50.5921C117.694 50.2657 117.647 50.1726 117.506 50.1726C117.367 50.1726 117.132 50.3589 116.899 50.5459H116.852L116.757 50.4051Z" fill="#9B99AB"/>
</g>
<defs>
<clipPath id="clip0_110_7299">
<rect width="125" height="56" fill="white"/>
</clipPath>
</defs>
</svg>
