<svg width="154" height="56" viewBox="0 0 154 56" fill="none" xmlns="http://www.w3.org/2000/svg">
<g clip-path="url(#clip0_110_7321)">
<path d="M25.7999 22.8546C25.2324 24.4586 21.6572 26.1339 12.875 24.1445L14.018 29.3403C22.7997 30.939 28.0049 29.6239 30.9782 26.4972C33.18 24.1797 33.6117 21.1821 31.8021 18.8883C29.8882 16.46 25.6486 14.6992 20.2949 14.6992C12.637 14.6992 7.17968 16.9219 4.14919 25.2627L0.0751953 36.4765H7.20251L11.2565 25.1351C12.9198 20.4708 16.4153 19.6985 20.2949 19.6985C24.3635 19.6985 26.3271 21.3763 25.7999 22.8546ZM96.3708 27.776L96.0949 27.6573C97.69 27.0205 99.4211 26.6757 101.141 26.6757C102.185 26.6757 104.506 26.853 105.485 27.4138C105.723 27.5476 105.942 27.7588 105.824 28.0208C105.392 28.9955 99.0343 28.9411 96.3708 27.776ZM109.39 25.1538C107.706 24.2516 104.928 23.5325 102.212 23.4215C96.578 23.1896 90.1536 25.1145 88.8745 29.6653C88.1346 32.2828 90.6671 35.8183 97.2612 36.8213C100.56 37.3286 105.802 37.2004 109.576 35.9514L110.984 32.066C103.333 34.6995 93.3339 33.935 93.6683 29.99C97.3699 32.3694 102.771 32.1433 106.77 31.4875C113.697 30.3548 113.597 27.405 109.39 25.1538ZM121.07 27.776L120.797 27.6573C122.39 27.0205 124.122 26.6757 125.84 26.6757C126.887 26.6757 129.205 26.853 130.184 27.4138C130.422 27.5476 130.639 27.7588 130.522 28.0208C130.091 28.9955 123.736 28.9411 121.07 27.776ZM134.089 25.1538C132.406 24.2516 129.627 23.5325 126.911 23.4215C121.279 23.1896 114.855 25.1145 113.573 29.6653C112.835 32.2828 115.369 35.8183 121.96 36.8213C125.259 37.3286 130.504 37.2004 134.275 35.9514L135.686 32.066C128.034 34.6995 118.036 33.935 118.37 29.99C122.072 32.3694 127.472 32.1433 131.47 31.4875C138.395 30.3548 138.298 27.405 134.089 25.1538ZM139.291 28.4941L136.464 36.4793H142.989L145.164 30.3342C145.699 28.7759 146.152 27.6098 148.055 27.6098H152.639L153.925 23.931H145.48C142.655 23.9307 140.378 25.3339 139.291 28.4941ZM29.9888 36.4793H36.7447L41.3103 23.9307H34.5551L29.9888 36.4793ZM73.8233 29.7269C74.4519 28.0005 76.3506 27.2013 78.0137 27.2013C79.6622 27.2013 81.2404 28.1745 80.6295 29.8554L78.2171 36.4791H84.743L87.1903 29.7506C88.46 26.2567 85.7101 23.3627 79.5483 23.3627C72.6893 23.3627 68.802 25.6078 67.3035 29.72L64.8454 36.4796H71.3668L73.8233 29.7269ZM53.6975 27.329C56.3338 27.4405 58.4585 28.7687 58.08 30.4956C57.7169 32.16 55.1469 33.2932 52.4806 33.1786C49.8435 33.069 47.7211 31.7349 48.0963 30.009C48.4628 28.3481 51.0306 27.2126 53.6975 27.329ZM54.6166 23.4277C47.8211 23.1389 41.7666 26.0489 40.9523 29.7701C40.1494 33.4317 44.7396 36.7902 51.5615 37.0789C58.3541 37.3687 64.4113 34.4593 65.2268 30.7371C66.0274 27.0762 61.4369 23.7144 54.6166 23.4277Z" fill="#9B99AB"/>
</g>
<defs>
<clipPath id="clip0_110_7321">
<rect width="154" height="56" fill="white"/>
</clipPath>
</defs>
</svg>
